<svg xmlns="http://www.w3.org/2000/svg" xmlns:xlink="http://www.w3.org/1999/xlink" width="128" zoomAndPan="magnify" viewBox="0 0 96 95.999999" height="128" preserveAspectRatio="xMidYMid meet" version="1.0"><defs><clipPath id="eb1e31f2ad"><path d="M 7.285156 4.9375 L 89 4.9375 L 89 91.1875 L 7.285156 91.1875 Z M 7.285156 4.9375 " clip-rule="nonzero"/></clipPath><clipPath id="49a8750d2e"><path d="M 47 4.9375 L 89 4.9375 L 89 91.1875 L 47 91.1875 Z M 47 4.9375 " clip-rule="nonzero"/></clipPath></defs><g clip-path="url(#eb1e31f2ad)"><path fill="#e23237" d="M 7.386719 19.234375 L 47.617188 4.933594 L 88.929688 18.976562 L 82.246094 72.074219 L 47.617188 91.199219 L 13.535156 72.328125 Z M 7.386719 19.234375 " fill-opacity="1" fill-rule="nonzero"/></g><g clip-path="url(#49a8750d2e)"><path fill="#b52e31" d="M 88.929688 18.976562 L 47.617188 4.933594 L 47.617188 91.199219 L 82.246094 72.101562 L 88.929688 18.980469 Z M 88.929688 18.976562 " fill-opacity="1" fill-rule="nonzero"/></g><path fill="#ffffff" d="M 47.683594 15.007812 L 22.613281 70.640625 L 31.976562 70.480469 L 37.011719 57.933594 L 59.5 57.933594 L 65.011719 70.640625 L 73.960938 70.800781 Z M 47.746094 32.832031 L 56.21875 50.496094 L 40.292969 50.496094 Z M 47.746094 32.832031 " fill-opacity="1" fill-rule="nonzero"/></svg>