<svg width="84" height="84" viewBox="0 0 84 84" fill="none" xmlns="http://www.w3.org/2000/svg">
<rect width="84" height="84" fill="#335993"/>
<path d="M20.0508 75.486V46H30.7842C34.0741 46 36.6032 46.6032 38.3715 47.8095C40.1399 49.0158 41.0241 50.7156 41.0241 52.9088C41.0241 54.499 40.4826 55.8903 39.3997 57.0829C38.3304 58.2755 36.9596 59.1049 35.2872 59.5709V59.6532C37.3846 59.9136 39.0569 60.6881 40.3044 61.9767C41.5655 63.2653 42.1961 64.8348 42.1961 66.6854C42.1961 69.3859 41.2297 71.5312 39.2968 73.1213C37.364 74.6977 34.7252 75.486 31.3805 75.486H20.0508ZM26.6923 50.8938V57.8849H29.6121C30.9829 57.8849 32.059 57.5559 32.8404 56.8979C33.6354 56.2262 34.033 55.3077 34.033 54.1426C34.033 51.9767 32.4154 50.8938 29.1803 50.8938H26.6923ZM26.6923 62.8197V70.5922H30.2907C31.826 70.5922 33.0254 70.2358 33.889 69.523C34.7663 68.8101 35.205 67.8369 35.205 66.6032C35.205 65.4243 34.7732 64.499 33.9096 63.8273C33.0597 63.1556 31.8671 62.8197 30.3318 62.8197H26.6923Z" fill="white"/>
<path d="M65.3489 66.8088H51.6135C51.8328 69.8657 53.7588 71.3941 57.3914 71.3941C59.7081 71.3941 61.7437 70.8458 63.4983 69.7491V74.4373C61.5518 75.4791 59.0227 76 55.911 76C52.5114 76 49.8726 75.061 47.9946 73.183C46.1166 71.2913 45.1776 68.6594 45.1776 65.2872C45.1776 61.7916 46.192 59.0226 48.2208 56.9801C50.2495 54.9376 52.7444 53.9164 55.7053 53.9164C58.7759 53.9164 61.1474 54.828 62.8198 56.6511C64.5059 58.4743 65.3489 60.9486 65.3489 64.074V66.8088ZM59.3243 62.8197C59.3243 59.804 58.1042 58.2961 55.6642 58.2961C54.6224 58.2961 53.7177 58.7279 52.95 59.5915C52.1961 60.4551 51.7369 61.5312 51.5724 62.8197H59.3243Z" fill="white"/>
<path d="M72.1138 76C71.0446 76 70.1536 75.671 69.4408 75.013C68.728 74.355 68.3716 73.5463 68.3716 72.5867C68.3716 71.5997 68.7348 70.791 69.4613 70.1604C70.2016 69.5298 71.12 69.2145 72.2166 69.2145C73.327 69.2145 74.2317 69.5367 74.9308 70.1809C75.6437 70.8115 76.0001 71.6134 76.0001 72.5867C76.0001 73.5874 75.6368 74.4099 74.9103 75.0541C74.1975 75.6847 73.2653 76 72.1138 76Z" fill="white"/>
</svg>
