<svg xmlns="http://www.w3.org/2000/svg" xmlns:xlink="http://www.w3.org/1999/xlink" width="128" zoomAndPan="magnify" viewBox="0 0 96 95.999999" height="128" preserveAspectRatio="xMidYMid meet" version="1.0"><defs><clipPath id="9e6ab5e25c"><path d="M 26.820312 26.820312 L 69.179688 26.820312 L 69.179688 69.179688 L 26.820312 69.179688 Z M 26.820312 26.820312 " clip-rule="nonzero"/></clipPath></defs><g clip-path="url(#9e6ab5e25c)"><path fill="#ffffff" d="M 26.820312 26.820312 L 69.179688 26.820312 L 69.179688 69.179688 L 26.820312 69.179688 Z M 26.820312 26.820312 " fill-opacity="1" fill-rule="nonzero"/></g><path fill="#673ab7" d="M 55.242188 39.390625 C 55.242188 35.960938 52.804688 34.066406 48.523438 34.066406 L 40.652344 34.066406 L 40.652344 45.121094 L 47.289062 45.121094 C 52.414062 45.105469 55.242188 43.054688 55.242188 39.390625 Z M 83.914062 37.402344 C 82.429688 32.605469 82.210938 26.722656 82.382812 22.171875 C 82.554688 17.4375 78.835938 13.089844 73.835938 13.089844 L 22.464844 13.089844 C 17.449219 13.089844 13.746094 17.453125 13.917969 22.171875 C 14.074219 26.722656 13.871094 32.605469 12.386719 37.402344 C 10.886719 42.21875 8.371094 45.261719 4.230469 45.648438 L 4.230469 50.074219 C 8.355469 50.460938 10.886719 53.507812 12.386719 58.320312 C 13.871094 63.117188 14.089844 69.003906 13.917969 73.550781 C 13.746094 78.289062 17.464844 82.636719 22.464844 82.636719 L 73.820312 82.636719 C 78.835938 82.636719 82.539062 78.273438 82.367188 73.550781 C 82.210938 69.003906 82.414062 63.117188 83.898438 58.320312 C 85.398438 53.507812 87.914062 50.460938 92.039062 50.074219 L 92.039062 45.648438 C 87.929688 45.261719 85.398438 42.21875 83.914062 37.402344 Z M 50.039062 66.363281 L 34.746094 66.363281 L 34.746094 29.359375 L 49.960938 29.359375 C 56.726562 29.359375 61.164062 32.996094 61.164062 38.585938 C 61.164062 42.511719 58.179688 46.023438 54.367188 46.628906 L 54.367188 46.828125 C 59.554688 47.386719 63.039062 50.960938 63.039062 55.882812 C 63.039062 62.417969 58.148438 66.363281 50.039062 66.363281 Z M 48.476562 49.484375 L 40.652344 49.484375 L 40.652344 61.65625 L 48.820312 61.65625 C 54.164062 61.65625 56.992188 59.53125 56.992188 55.523438 C 56.992188 51.535156 54.085938 49.484375 48.476562 49.484375 Z M 48.476562 49.484375 " fill-opacity="1" fill-rule="nonzero"/></svg>