<svg xmlns="http://www.w3.org/2000/svg" xmlns:xlink="http://www.w3.org/1999/xlink" width="128" zoomAndPan="magnify" viewBox="0 0 96 95.999999" height="128" preserveAspectRatio="xMidYMid meet" version="1.0"><defs><clipPath id="991e8b9e91"><path d="M 8 3.636719 L 88 3.636719 L 88 92 L 8 92 Z M 8 3.636719 " clip-rule="nonzero"/></clipPath><clipPath id="87b471a7b1"><path d="M 8 3.636719 L 87 3.636719 L 87 70 L 8 70 Z M 8 3.636719 " clip-rule="nonzero"/></clipPath></defs><g clip-path="url(#991e8b9e91)"><path fill="#00b6c8" d="M 45.671875 4.445312 C 47.097656 3.648438 48.855469 3.648438 50.277344 4.445312 C 57.328125 8.394531 78.542969 20.28125 85.59375 24.230469 C 87.019531 25.027344 87.898438 26.503906 87.898438 28.101562 C 87.898438 36 87.898438 59.769531 87.898438 67.667969 C 87.898438 69.265625 87.019531 70.742188 85.59375 71.542969 C 78.542969 75.492188 57.332031 87.378906 50.277344 91.328125 C 48.851562 92.125 47.09375 92.125 45.671875 91.328125 C 38.621094 87.378906 17.40625 75.492188 10.355469 71.542969 C 8.929688 70.742188 8.054688 69.269531 8.054688 67.671875 C 8.054688 59.773438 8.054688 36.003906 8.054688 28.105469 C 8.054688 26.507812 8.929688 25.03125 10.359375 24.230469 C 17.40625 20.28125 38.625 8.394531 45.671875 4.445312 Z M 45.671875 4.445312 " fill-opacity="1" fill-rule="nonzero"/></g><g clip-path="url(#87b471a7b1)"><path fill="#47d4e1" d="M 8.691406 69.707031 C 8.132812 68.957031 8.054688 68.25 8.054688 67.296875 C 8.054688 59.445312 8.054688 35.808594 8.054688 27.957031 C 8.054688 26.367188 8.929688 24.898438 10.351562 24.105469 C 17.375 20.179688 38.519531 8.363281 45.542969 4.433594 C 46.964844 3.640625 48.890625 3.65625 50.316406 4.449219 C 57.339844 8.375 78.410156 20.09375 85.433594 24.019531 C 86 24.335938 86.433594 24.722656 86.820312 25.226562 Z M 8.691406 69.707031 " fill-opacity="1" fill-rule="nonzero"/></g><path fill="#ffffff" d="M 47.976562 18.527344 C 31.734375 18.527344 18.558594 31.675781 18.558594 47.886719 C 18.558594 64.097656 31.734375 77.246094 47.976562 77.246094 C 64.21875 77.246094 77.394531 64.097656 77.394531 47.886719 C 77.394531 31.675781 64.21875 18.527344 47.976562 18.527344 Z M 47.976562 62.566406 C 39.867188 62.566406 33.269531 55.980469 33.269531 47.886719 C 33.269531 39.792969 39.867188 33.207031 47.976562 33.207031 C 56.085938 33.207031 62.683594 39.792969 62.683594 47.886719 C 62.683594 55.980469 56.085938 62.566406 47.976562 62.566406 Z M 47.976562 62.566406 " fill-opacity="1" fill-rule="nonzero"/><path fill="#02c5d8" d="M 86.816406 25.246094 C 87.902344 26.261719 87.878906 27.789062 87.878906 28.988281 C 87.878906 36.949219 87.8125 59.585938 87.898438 67.542969 C 87.90625 68.375 87.632812 69.25 87.21875 69.90625 L 47.121094 47.886719 Z M 86.816406 25.246094 " fill-opacity="1" fill-rule="nonzero"/><path fill="#ffffff" d="M 68.988281 39.496094 L 71.089844 39.496094 L 71.089844 56.273438 L 68.988281 56.273438 Z M 75.292969 39.496094 L 77.394531 39.496094 L 77.394531 56.273438 L 75.292969 56.273438 Z M 75.292969 39.496094 " fill-opacity="1" fill-rule="nonzero"/><path fill="#ffffff" d="M 64.785156 49.984375 L 81.59375 49.984375 L 81.59375 52.082031 L 64.785156 52.082031 Z M 64.785156 43.691406 L 81.59375 43.691406 L 81.59375 45.789062 L 64.785156 45.789062 Z M 64.785156 43.691406 " fill-opacity="1" fill-rule="nonzero"/></svg>