<svg xmlns="http://www.w3.org/2000/svg" xmlns:xlink="http://www.w3.org/1999/xlink" width="128" zoomAndPan="magnify" viewBox="0 0 96 95.999999" height="128" preserveAspectRatio="xMidYMid meet" version="1.0"><defs><clipPath id="fdc59ff7a8"><path d="M 8.773438 4 L 87.523438 4 L 87.523438 92 L 8.773438 92 Z M 8.773438 4 " clip-rule="nonzero"/></clipPath><clipPath id="785e9174d1"><path d="M 48 25 L 87.523438 25 L 87.523438 70 L 48 70 Z M 48 25 " clip-rule="nonzero"/></clipPath></defs><g clip-path="url(#fdc59ff7a8)"><path fill="#5c8dbc" d="M 87.402344 29.816406 C 87.402344 28.34375 87.082031 27.042969 86.441406 25.925781 C 85.808594 24.828125 84.867188 23.90625 83.601562 23.175781 C 73.144531 17.191406 62.683594 11.226562 52.234375 5.234375 C 49.417969 3.617188 46.683594 3.679688 43.890625 5.316406 C 39.730469 7.753906 18.898438 19.605469 12.6875 23.171875 C 10.132812 24.644531 8.890625 26.890625 8.886719 29.816406 C 8.882812 41.851562 8.886719 53.886719 8.882812 65.925781 C 8.882812 67.367188 9.1875 68.640625 9.800781 69.742188 C 10.433594 70.875 11.390625 71.824219 12.6875 72.566406 C 18.894531 76.136719 39.726562 87.984375 43.886719 90.421875 C 46.6875 92.0625 49.417969 92.121094 52.234375 90.503906 C 62.6875 84.515625 73.152344 78.546875 83.605469 72.5625 C 84.902344 71.820312 85.859375 70.871094 86.492188 69.738281 C 87.101562 68.640625 87.40625 67.363281 87.40625 65.921875 C 87.40625 65.921875 87.40625 41.855469 87.402344 29.820312 " fill-opacity="1" fill-rule="nonzero"/></g><path fill="#1a4674" d="M 48.265625 47.753906 L 9.800781 69.742188 C 10.433594 70.875 11.390625 71.824219 12.6875 72.566406 C 18.894531 76.136719 39.726562 87.984375 43.886719 90.421875 C 46.6875 92.0625 49.417969 92.121094 52.234375 90.503906 C 62.6875 84.511719 73.152344 78.546875 83.605469 72.5625 C 84.902344 71.820312 85.859375 70.871094 86.492188 69.738281 L 48.265625 47.753906 " fill-opacity="1" fill-rule="nonzero"/><path fill="#1a4674" d="M 36.871094 54.265625 C 39.109375 58.148438 43.316406 60.765625 48.144531 60.765625 C 53 60.765625 57.230469 58.113281 59.460938 54.191406 L 48.265625 47.753906 L 36.871094 54.265625 " fill-opacity="1" fill-rule="nonzero"/><g clip-path="url(#785e9174d1)"><path fill="#1b598e" d="M 87.402344 29.816406 C 87.402344 28.34375 87.082031 27.042969 86.441406 25.925781 L 48.265625 47.753906 L 86.488281 69.738281 C 87.101562 68.640625 87.40625 67.363281 87.40625 65.917969 C 87.40625 65.917969 87.40625 41.855469 87.402344 29.816406 " fill-opacity="1" fill-rule="nonzero"/></g><path fill="#ffffff" d="M 85.300781 49.324219 L 82.3125 49.324219 L 82.3125 52.289062 L 79.324219 52.289062 L 79.324219 49.324219 L 76.339844 49.324219 L 76.339844 46.359375 L 79.324219 46.359375 L 79.324219 43.394531 L 82.3125 43.394531 L 82.3125 46.359375 L 85.300781 46.359375 L 85.300781 49.324219 " fill-opacity="1" fill-rule="nonzero"/><path fill="#ffffff" d="M 74.398438 49.324219 L 71.414062 49.324219 L 71.414062 52.289062 L 68.425781 52.289062 L 68.425781 49.324219 L 65.441406 49.324219 L 65.441406 46.359375 L 68.425781 46.359375 L 68.425781 43.394531 L 71.414062 43.394531 L 71.414062 46.359375 L 74.398438 46.359375 L 74.398438 49.324219 " fill-opacity="1" fill-rule="nonzero"/><path fill="#ffffff" d="M 59.460938 54.191406 C 57.230469 58.113281 53 60.765625 48.144531 60.765625 C 43.316406 60.765625 39.109375 58.148438 36.871094 54.265625 C 35.785156 52.378906 35.160156 50.199219 35.160156 47.867188 C 35.160156 40.75 40.972656 34.976562 48.144531 34.976562 C 52.941406 34.976562 57.125 37.5625 59.375 41.402344 L 70.722656 34.914062 C 66.210938 27.179688 57.792969 21.976562 48.144531 21.976562 C 33.742188 21.976562 22.070312 33.570312 22.070312 47.867188 C 22.070312 52.5625 23.324219 56.960938 25.523438 60.753906 C 30.023438 68.527344 38.46875 73.761719 48.144531 73.761719 C 57.839844 73.761719 66.296875 68.507812 70.789062 60.710938 L 59.460938 54.191406 " fill-opacity="1" fill-rule="nonzero"/></svg>