<svg xmlns="http://www.w3.org/2000/svg" xmlns:xlink="http://www.w3.org/1999/xlink" width="128" zoomAndPan="magnify" viewBox="0 0 96 95.999999" height="128" preserveAspectRatio="xMidYMid meet" version="1.0"><defs><clipPath id="979b4ad58f"><path d="M 8.449219 3.59375 L 87.023438 3.59375 L 87.023438 92.09375 L 8.449219 92.09375 Z M 8.449219 3.59375 " clip-rule="nonzero"/></clipPath><clipPath id="17b7aa7bf5"><path d="M 8.449219 3.59375 L 76 3.59375 L 76 77 L 8.449219 77 Z M 8.449219 3.59375 " clip-rule="nonzero"/></clipPath></defs><g clip-path="url(#979b4ad58f)"><path fill="#a9b9cb" d="M 87.019531 29.921875 C 87.019531 28.433594 86.703125 27.117188 86.058594 25.988281 C 85.429688 24.878906 84.484375 23.949219 83.21875 23.214844 C 72.757812 17.167969 62.285156 11.144531 51.828125 5.09375 C 49.007812 3.460938 46.277344 3.519531 43.476562 5.175781 C 39.3125 7.636719 18.46875 19.605469 12.257812 23.210938 C 9.699219 24.695312 8.453125 26.964844 8.453125 29.917969 C 8.449219 42.074219 8.453125 54.226562 8.449219 66.382812 C 8.449219 67.839844 8.753906 69.128906 9.367188 70.242188 C 10 71.382812 10.957031 72.339844 12.253906 73.09375 C 18.464844 76.699219 39.3125 88.664062 43.476562 91.125 C 46.277344 92.78125 49.007812 92.839844 51.828125 91.210938 C 62.285156 85.160156 72.757812 79.132812 83.21875 73.089844 C 84.515625 72.335938 85.472656 71.378906 86.105469 70.238281 C 86.71875 69.125 87.023438 67.835938 87.023438 66.382812 C 87.023438 66.382812 87.023438 42.078125 87.019531 29.921875 " fill-opacity="1" fill-rule="nonzero"/></g><g clip-path="url(#17b7aa7bf5)"><path fill="#7f8b99" d="M 51.757812 5.171875 C 48.941406 3.542969 46.214844 3.605469 43.421875 5.253906 C 39.261719 7.707031 18.453125 19.644531 12.25 23.242188 C 9.695312 24.722656 8.453125 26.988281 8.453125 29.933594 C 8.449219 42.054688 8.453125 54.179688 8.449219 66.304688 C 8.449219 67.757812 8.753906 69.042969 9.367188 70.152344 C 9.996094 71.292969 10.953125 72.246094 12.246094 72.996094 C 14.308594 74.1875 16.371094 75.378906 18.433594 76.566406 L 75.859375 19.074219 C 67.824219 14.441406 59.789062 9.8125 51.757812 5.171875 Z M 51.757812 5.171875 " fill-opacity="1" fill-rule="nonzero"/></g><path fill="#ffffff" d="M 55.855469 42.609375 L 68.085938 42.695312 C 68.085938 37.597656 62.925781 25.105469 48.140625 25.105469 C 38.722656 25.105469 26.058594 31.101562 26.058594 48.339844 C 26.058594 65.578125 38.472656 71.199219 48.140625 71.199219 C 63.800781 71.199219 67.542969 60.351562 67.542969 54.21875 L 55.878906 53.550781 C 55.878906 53.550781 56.191406 60.644531 48.078125 60.644531 C 40.59375 60.644531 39.34375 51.460938 39.34375 48.339844 C 39.34375 43.59375 41.03125 35.972656 48.078125 35.972656 C 55.128906 35.972656 55.855469 42.609375 55.855469 42.609375 " fill-opacity="1" fill-rule="nonzero"/></svg>