<svg xmlns="http://www.w3.org/2000/svg" xmlns:xlink="http://www.w3.org/1999/xlink" width="128" zoomAndPan="magnify" viewBox="0 0 96 95.999999" height="128" preserveAspectRatio="xMidYMid meet" version="1.0"><defs><clipPath id="382b6945cb"><path d="M 9.167969 4.609375 L 87.167969 4.609375 L 87.167969 91.609375 L 9.167969 91.609375 Z M 9.167969 4.609375 " clip-rule="nonzero"/></clipPath></defs><g clip-path="url(#382b6945cb)"><path fill="#0277bd" d="M 87.15625 4.609375 L 9.175781 4.609375 L 16.054688 82.453125 L 48.167969 91.609375 L 80.277344 82.453125 Z M 87.15625 4.609375 " fill-opacity="1" fill-rule="nonzero"/></g><path fill="#039be5" d="M 48.167969 11.480469 L 48.167969 84.511719 L 73.855469 77.1875 L 79.589844 11.480469 Z M 48.167969 11.480469 " fill-opacity="1" fill-rule="nonzero"/><path fill="#ffffff" d="M 69.039062 22.925781 L 48.167969 22.925781 L 48.167969 32.082031 L 59.40625 32.082031 L 58.714844 41.242188 L 48.167969 41.242188 L 48.167969 50.398438 L 58.257812 50.398438 L 57.570312 60.703125 L 48.167969 63.90625 L 48.167969 73.523438 L 66.285156 67.570312 L 67.890625 41.242188 Z M 69.039062 22.925781 " fill-opacity="1" fill-rule="nonzero"/><path fill="#eeeeee" d="M 48.167969 22.925781 L 48.167969 32.082031 L 27.753906 32.082031 L 27.066406 22.925781 Z M 37.617188 41.242188 L 38.074219 50.398438 L 48.167969 50.398438 L 48.167969 41.242188 Z M 38.53125 54.980469 L 29.359375 54.980469 L 30.046875 67.570312 L 48.167969 73.523438 L 48.167969 63.90625 L 38.761719 60.703125 Z M 38.53125 54.980469 " fill-opacity="1" fill-rule="nonzero"/></svg>