<svg width="84" height="84" viewBox="0 0 84 84" fill="none" xmlns="http://www.w3.org/2000/svg">
<rect width="84" height="84" fill="#D3435D"/>
<path d="M42.1961 51.4078H31.7917V58.6456H41.353V64.0329H31.7917V75.486H25.1501V46H42.1961V51.4078Z" fill="white"/>
<path d="M65.3489 66.8088H51.6135C51.8328 69.8657 53.7588 71.3941 57.3914 71.3941C59.7081 71.3941 61.7437 70.8458 63.4983 69.7491V74.4373C61.5518 75.4791 59.0227 76 55.9109 76C52.5114 76 49.8726 75.061 47.9946 73.183C46.1166 71.2913 45.1776 68.6594 45.1776 65.2872C45.1776 61.7916 46.192 59.0226 48.2207 56.9801C50.2495 54.9376 52.7444 53.9164 55.7053 53.9164C58.7759 53.9164 61.1474 54.828 62.8198 56.6511C64.5059 58.4743 65.3489 60.9486 65.3489 64.074V66.8088ZM59.3242 62.8197C59.3242 59.804 58.1042 58.2961 55.6642 58.2961C54.6224 58.2961 53.7177 58.7279 52.95 59.5915C52.1961 60.4551 51.7369 61.5312 51.5724 62.8197H59.3242Z" fill="white"/>
<path d="M72.1138 76C71.0446 76 70.1536 75.671 69.4408 75.013C68.7279 74.355 68.3715 73.5463 68.3715 72.5867C68.3715 71.5997 68.7348 70.791 69.4613 70.1604C70.2016 69.5298 71.12 69.2145 72.2166 69.2145C73.327 69.2145 74.2317 69.5367 74.9308 70.1809C75.6436 70.8115 76 71.6134 76 72.5867C76 73.5874 75.6368 74.4099 74.9103 75.0541C74.1974 75.6847 73.2653 76 72.1138 76Z" fill="white"/>
</svg>
