<svg width="84" height="84" viewBox="0 0 84 84" fill="none" xmlns="http://www.w3.org/2000/svg">
<rect width="84" height="84" fill="#715496"/>
<path d="M56.98 51.4078H46.5756V58.6456H56.137V64.0329H46.5756V75.486H39.9341V46H56.98V51.4078Z" fill="white"/>
<path d="M59.8381 74.9308V69.6669C60.9074 70.3112 61.9697 70.791 63.0252 71.1062C64.0945 71.4215 65.102 71.5792 66.0479 71.5792C67.1993 71.5792 68.1041 71.4215 68.762 71.1062C69.4337 70.791 69.7696 70.3112 69.7696 69.6669C69.7696 69.2557 69.6188 68.913 69.3172 68.6388C69.0156 68.3646 68.625 68.1247 68.1452 67.9191C67.6791 67.7135 67.1651 67.5284 66.603 67.3639C66.041 67.1995 65.4995 67.0144 64.9786 66.8088C64.1424 66.4935 63.4022 66.1576 62.7579 65.8012C62.1274 65.4311 61.5928 65.0062 61.1541 64.5264C60.7291 64.0466 60.4002 63.4914 60.1671 62.8609C59.9478 62.2303 59.8381 61.4832 59.8381 60.6196C59.8381 59.4407 60.0917 58.4263 60.5989 57.5764C61.1198 56.7265 61.8052 56.0343 62.6551 55.4997C63.5187 54.9513 64.4989 54.5538 65.5955 54.3071C66.7058 54.0466 67.8573 53.9164 69.0499 53.9164C69.9821 53.9164 70.9279 53.9918 71.8875 54.1426C72.847 54.2796 73.7929 54.4853 74.725 54.7594V59.7766C73.9026 59.2968 73.0184 58.9404 72.0725 58.7073C71.1404 58.4606 70.222 58.3372 69.3172 58.3372C68.8923 58.3372 68.4879 58.3783 68.1041 58.4606C67.7339 58.5291 67.405 58.6388 67.1171 58.7896C66.8292 58.9267 66.603 59.1117 66.4385 59.3448C66.274 59.5641 66.1918 59.8177 66.1918 60.1056C66.1918 60.4894 66.3152 60.8184 66.5619 61.0925C66.8087 61.3667 67.1308 61.6066 67.5283 61.8122C67.9259 62.0041 68.3645 62.1823 68.8443 62.3468C69.3378 62.4976 69.8244 62.6552 70.3042 62.8197C71.1678 63.1213 71.9492 63.4503 72.6483 63.8067C73.3474 64.1631 73.9437 64.5812 74.4372 65.061C74.9444 65.5408 75.3282 66.1028 75.5886 66.7471C75.8628 67.3914 75.9999 68.159 75.9999 69.05C75.9999 70.2975 75.7257 71.3667 75.1774 72.2577C74.6428 73.135 73.9231 73.8547 73.0184 74.4167C72.1274 74.965 71.0924 75.3626 69.9135 75.6093C68.7483 75.8698 67.5352 76 66.274 76C63.9574 76 61.8121 75.6436 59.8381 74.9308Z" fill="white"/>
</svg>
