<svg width="74" height="85" viewBox="0 0 74 85" fill="none" xmlns="http://www.w3.org/2000/svg">
<path d="M0.937997 52.4046C0.825513 52.3824 0.709437 52.3852 0.59817 52.4127C0.486902 52.4401 0.383227 52.4916 0.294645 52.5635C0.206063 52.6353 0.134791 52.7256 0.0859862 52.8279C0.0371818 52.9302 0.0120659 53.0419 0.0124556 53.1549V65.1336C0.0126346 66.2822 0.341885 67.4074 0.962327 68.3798C1.58277 69.3522 2.46919 70.1323 3.51961 70.6302L30.967 83.6429C32.8512 84.5362 34.9153 85.0001 37.0063 85.0001C39.0972 85.0001 41.1613 84.5362 43.0455 83.6429L70.4929 70.6302C71.5438 70.1321 72.4305 69.3515 73.051 68.3786C73.6715 67.4056 74.0005 66.2797 74.0001 65.1305V53.1549C74.0005 53.0419 73.9753 52.9302 73.9265 52.8279C73.8777 52.7256 73.8065 52.6353 73.7179 52.5635C73.6293 52.4916 73.5256 52.4401 73.4144 52.4127C73.3031 52.3852 73.187 52.3824 73.0745 52.4046L37.0063 59.4356L0.937997 52.4046Z" fill="url(#paint0_linear_733_476)"/>
<path d="M36.9536 30.7868L1.78917 46.8925C1.25493 47.1376 0.802776 47.5278 0.485838 48.0174C0.1689 48.5069 0.000351161 49.0754 0 49.6561V52.0903C0.000330327 52.2053 0.0336333 52.3178 0.0960688 52.415C0.158504 52.5121 0.24753 52.5899 0.352882 52.6393L32.9976 68.013C34.2474 68.6012 35.6149 68.9065 37 68.9065C38.3851 68.9065 39.7526 68.6012 41.0024 68.013L73.6471 52.6393C73.7525 52.5899 73.8415 52.5121 73.9039 52.415C73.9664 52.3178 73.9997 52.2053 74 52.0903V49.6592C74 49.0776 73.8312 48.5082 73.5137 48.0181C73.1961 47.5279 72.743 47.1374 72.2077 46.8925L37.0495 30.7899V30.7441L37 30.7685L36.9505 30.7441V30.7899L36.9536 30.7868Z" fill="url(#paint1_linear_733_476)"/>
<path d="M36.9536 30.7868L1.78917 46.8925C1.25493 47.1376 0.802776 47.5278 0.485838 48.0174C0.1689 48.5069 0.000351161 49.0754 0 49.6561V52.0903C0.000330327 52.2053 0.0336333 52.3178 0.0960688 52.415C0.158504 52.5121 0.24753 52.5899 0.352882 52.6393L32.9976 68.013C34.2474 68.6012 35.6149 68.9065 37 68.9065C38.3851 68.9065 39.7526 68.6012 41.0024 68.013L73.6471 52.6393C73.7525 52.5899 73.8415 52.5121 73.9039 52.415C73.9664 52.3178 73.9997 52.2053 74 52.0903V49.6592C74 49.0776 73.8312 48.5082 73.5137 48.0181C73.1961 47.5279 72.743 47.1374 72.2077 46.8925L37.0495 30.7899V30.7441L37 30.7685L36.9505 30.7441V30.7899L36.9536 30.7868Z" fill="url(#paint2_linear_733_476)"/>
<path d="M36.9536 30.7868L1.78917 46.8925C1.25493 47.1376 0.802776 47.5278 0.485838 48.0174C0.1689 48.5069 0.000351161 49.0754 0 49.6561V52.0903C0.000330327 52.2053 0.0336333 52.3178 0.0960688 52.415C0.158504 52.5121 0.24753 52.5899 0.352882 52.6393L32.9976 68.013C34.2474 68.6012 35.6149 68.9065 37 68.9065C38.3851 68.9065 39.7526 68.6012 41.0024 68.013L73.6471 52.6393C73.7525 52.5899 73.8415 52.5121 73.9039 52.415C73.9664 52.3178 73.9997 52.2053 74 52.0903V49.6592C74 49.0776 73.8312 48.5082 73.5137 48.0181C73.1961 47.5279 72.743 47.1374 72.2077 46.8925L37.0495 30.7899V30.7441L37 30.7685L36.9505 30.7441V30.7899L36.9536 30.7868Z" fill="url(#paint3_linear_733_476)"/>
<path d="M36.9536 30.7868L1.78917 46.8925C1.25493 47.1376 0.802776 47.5278 0.485838 48.0174C0.1689 48.5069 0.000351161 49.0754 0 49.6561V52.0903C0.000330327 52.2053 0.0336333 52.3178 0.0960688 52.415C0.158504 52.5121 0.24753 52.5899 0.352882 52.6393L32.9976 68.013C34.2474 68.6012 35.6149 68.9065 37 68.9065C38.3851 68.9065 39.7526 68.6012 41.0024 68.013L73.6471 52.6393C73.7525 52.5899 73.8415 52.5121 73.9039 52.415C73.9664 52.3178 73.9997 52.2053 74 52.0903V49.6592C74 49.0776 73.8312 48.5082 73.5137 48.0181C73.1961 47.5279 72.743 47.1374 72.2077 46.8925L37.0495 30.7899V30.7441L37 30.7685L36.9505 30.7441V30.7899L36.9536 30.7868Z" fill="url(#paint4_linear_733_476)"/>
<path d="M36.9536 30.7868L1.78917 46.8925C1.25493 47.1376 0.802776 47.5278 0.485838 48.0174C0.1689 48.5069 0.000351161 49.0754 0 49.6561V52.0903C0.000330327 52.2053 0.0336333 52.3178 0.0960688 52.415C0.158504 52.5121 0.24753 52.5899 0.352882 52.6393L32.9976 68.013C34.2474 68.6012 35.6149 68.9065 37 68.9065C38.3851 68.9065 39.7526 68.6012 41.0024 68.013L73.6471 52.6393C73.7525 52.5899 73.8415 52.5121 73.9039 52.415C73.9664 52.3178 73.9997 52.2053 74 52.0903V49.6592C74 49.0776 73.8312 48.5082 73.5137 48.0181C73.1961 47.5279 72.743 47.1374 72.2077 46.8925L37.0495 30.7899V30.7441L37 30.7685L36.9505 30.7441V30.7899L36.9536 30.7868Z" fill="url(#paint5_radial_733_476)"/>
<g filter="url(#filter0_f_733_476)">
<path d="M40.854 68.2968L72.8765 53.0452" stroke="url(#paint6_linear_733_476)" stroke-width="0.2" stroke-linecap="round"/>
</g>
<g filter="url(#filter1_f_733_476)">
<path d="M36.2012 68.6931C23.1508 65.9326 21.4576 53.7038 22.2407 47.9357L52.1119 48.4268C52.245 56.3332 46.9579 67.0185 36.2012 68.6931Z" fill="url(#paint7_linear_733_476)"/>
<path d="M36.2012 68.6931C23.1508 65.9326 21.4576 53.7038 22.2407 47.9357L52.1119 48.4268C52.245 56.3332 46.9579 67.0185 36.2012 68.6931Z" fill="url(#paint8_radial_733_476)"/>
</g>
<g filter="url(#filter2_f_733_476)">
<path d="M12.2271 55.8115C8.57138 54.9422 8.09778 51.0896 8.31756 49.2716L16.6877 49.4241C16.7248 51.9162 15.239 55.2838 12.2271 55.8115Z" fill="url(#paint9_linear_733_476)"/>
</g>
<path d="M1.78917 49.6623L34.3441 64.5723C35.1607 64.9458 36.0502 65.1393 36.9505 65.1393C37.8508 65.1393 38.7402 64.9458 39.5568 64.5723L72.2077 49.6623C72.8364 49.3743 73.3487 48.8866 73.6626 48.2775C73.8834 48.7045 73.999 49.1769 74 49.6562V52.0904C73.9997 52.2054 73.9664 52.3179 73.9039 52.4151C73.8415 52.5122 73.7525 52.59 73.6471 52.6394L41.0024 68.013C39.7526 68.6013 38.3851 68.9066 37 68.9066C35.6149 68.9066 34.2474 68.6013 32.9976 68.013L0.352882 52.6394C0.24753 52.59 0.158504 52.5122 0.0960688 52.4151C0.0336333 52.3179 0.000330327 52.2054 0 52.0904V49.6593C0 49.1712 0.117627 48.6984 0.334309 48.2775C0.64765 48.8877 1.16003 49.3735 1.78917 49.6623Z" fill="url(#paint10_linear_733_476)"/>
<g filter="url(#filter3_d_733_476)">
<path d="M22.1665 47.3897C22.1091 47.611 22.08 47.8385 22.0798 48.0669C22.0798 51.529 28.8032 54.3353 37.0959 54.3353C45.3917 54.3353 52.1151 51.529 52.1151 48.0669C52.1149 47.8385 52.0858 47.611 52.0284 47.3897C51.3739 43.9592 49.5235 40.8618 46.7971 38.6332C44.0707 36.4046 40.6398 35.1848 37.0974 35.1848C33.5551 35.1848 30.1242 36.4046 27.3978 38.6332C24.6714 40.8618 22.821 43.9592 22.1665 47.3897Z" fill="#4C2F5A"/>
<path d="M22.1665 47.3897C22.1091 47.611 22.08 47.8385 22.0798 48.0669C22.0798 51.529 28.8032 54.3353 37.0959 54.3353C45.3917 54.3353 52.1151 51.529 52.1151 48.0669C52.1149 47.8385 52.0858 47.611 52.0284 47.3897C51.3739 43.9592 49.5235 40.8618 46.7971 38.6332C44.0707 36.4046 40.6398 35.1848 37.0974 35.1848C33.5551 35.1848 30.1242 36.4046 27.3978 38.6332C24.6714 40.8618 22.821 43.9592 22.1665 47.3897Z" fill="url(#paint11_radial_733_476)"/>
<path d="M22.1665 47.3897C22.1091 47.611 22.08 47.8385 22.0798 48.0669C22.0798 51.529 28.8032 54.3353 37.0959 54.3353C45.3917 54.3353 52.1151 51.529 52.1151 48.0669C52.1149 47.8385 52.0858 47.611 52.0284 47.3897C51.3739 43.9592 49.5235 40.8618 46.7971 38.6332C44.0707 36.4046 40.6398 35.1848 37.0974 35.1848C33.5551 35.1848 30.1242 36.4046 27.3978 38.6332C24.6714 40.8618 22.821 43.9592 22.1665 47.3897Z" fill="url(#paint12_radial_733_476)"/>
<path d="M22.1665 47.3897C22.1091 47.611 22.08 47.8385 22.0798 48.0669C22.0798 51.529 28.8032 54.3353 37.0959 54.3353C45.3917 54.3353 52.1151 51.529 52.1151 48.0669C52.1149 47.8385 52.0858 47.611 52.0284 47.3897C51.3739 43.9592 49.5235 40.8618 46.7971 38.6332C44.0707 36.4046 40.6398 35.1848 37.0974 35.1848C33.5551 35.1848 30.1242 36.4046 27.3978 38.6332C24.6714 40.8618 22.821 43.9592 22.1665 47.3897Z" fill="url(#paint13_radial_733_476)"/>
<path d="M22.1665 47.3897C22.1091 47.611 22.08 47.8385 22.0798 48.0669C22.0798 51.529 28.8032 54.3353 37.0959 54.3353C45.3917 54.3353 52.1151 51.529 52.1151 48.0669C52.1149 47.8385 52.0858 47.611 52.0284 47.3897C51.3739 43.9592 49.5235 40.8618 46.7971 38.6332C44.0707 36.4046 40.6398 35.1848 37.0974 35.1848C33.5551 35.1848 30.1242 36.4046 27.3978 38.6332C24.6714 40.8618 22.821 43.9592 22.1665 47.3897Z" fill="url(#paint14_radial_733_476)"/>
</g>
<path d="M22.1665 47.3897C22.1091 47.611 22.08 47.8385 22.0798 48.0669C22.0798 51.529 28.8032 54.3353 37.0959 54.3353C45.3917 54.3353 52.1151 51.529 52.1151 48.0669C52.1149 47.8385 52.0858 47.611 52.0284 47.3897C51.3739 43.9592 49.5235 40.8618 46.7971 38.6332C44.0707 36.4046 40.6398 35.1848 37.0974 35.1848C33.5551 35.1848 30.1242 36.4046 27.3978 38.6332C24.6714 40.8618 22.821 43.9592 22.1665 47.3897Z" fill="url(#paint15_radial_733_476)"/>
<path d="M22.1665 47.3897C22.1091 47.611 22.08 47.8385 22.0798 48.0669C22.0798 51.529 28.8032 54.3353 37.0959 54.3353C45.3917 54.3353 52.1151 51.529 52.1151 48.0669C52.1149 47.8385 52.0858 47.611 52.0284 47.3897C51.3739 43.9592 49.5235 40.8618 46.7971 38.6332C44.0707 36.4046 40.6398 35.1848 37.0974 35.1848C33.5551 35.1848 30.1242 36.4046 27.3978 38.6332C24.6714 40.8618 22.821 43.9592 22.1665 47.3897Z" fill="url(#paint16_radial_733_476)"/>
<g filter="url(#filter4_f_733_476)">
<path d="M12.3695 46.5785C14.753 46.5785 16.6877 47.8383 16.6877 50.0681C16.6877 51.3919 14.753 51.9623 12.3695 51.9623C9.98601 51.9623 8.05444 51.4499 8.05444 50.0711C8.05444 47.8383 9.98601 46.5785 12.3695 46.5785Z" fill="#50416C"/>
</g>
<path d="M12.3694 46.2336C14.6353 46.2336 16.4678 47.4934 16.4678 49.7232C16.4678 51.0471 14.6353 51.6175 12.3694 51.6175C10.1066 51.6175 8.271 51.105 8.271 49.7263C8.271 47.4934 10.1066 46.2336 12.3694 46.2336Z" fill="url(#paint17_radial_733_476)"/>
<path d="M12.3694 46.2336C14.6353 46.2336 16.4678 47.4934 16.4678 49.7232C16.4678 51.0471 14.6353 51.6175 12.3694 51.6175C10.1066 51.6175 8.271 51.105 8.271 49.7263C8.271 47.4934 10.1066 46.2336 12.3694 46.2336Z" fill="url(#paint18_radial_733_476)"/>
<path d="M12.3694 46.2336C14.6353 46.2336 16.4678 47.4934 16.4678 49.7232C16.4678 51.0471 14.6353 51.6175 12.3694 51.6175C10.1066 51.6175 8.271 51.105 8.271 49.7263C8.271 47.4934 10.1066 46.2336 12.3694 46.2336Z" fill="url(#paint19_radial_733_476)"/>
<path d="M33.9043 24.5245C33.9043 23.7216 34.228 22.9515 34.8041 22.3838C35.3803 21.816 36.1617 21.4971 36.9765 21.4971C37.7913 21.4971 38.5728 21.816 39.1489 22.3838C39.7251 22.9515 40.0488 23.7216 40.0488 24.5245V37.1772C40.0488 38.8488 38.6713 39.3704 36.975 39.3704C35.2818 39.3704 33.9043 38.8488 33.9043 37.1742V24.5245Z" fill="url(#paint20_linear_733_476)"/>
<path d="M33.9043 24.5245C33.9043 23.7216 34.228 22.9515 34.8041 22.3838C35.3803 21.816 36.1617 21.4971 36.9765 21.4971C37.7913 21.4971 38.5728 21.816 39.1489 22.3838C39.7251 22.9515 40.0488 23.7216 40.0488 24.5245V37.1772C40.0488 38.8488 38.6713 39.3704 36.975 39.3704C35.2818 39.3704 33.9043 38.8488 33.9043 37.1742V24.5245Z" fill="url(#paint21_radial_733_476)"/>
<path d="M33.9043 24.5245C33.9043 23.7216 34.228 22.9515 34.8041 22.3838C35.3803 21.816 36.1617 21.4971 36.9765 21.4971C37.7913 21.4971 38.5728 21.816 39.1489 22.3838C39.7251 22.9515 40.0488 23.7216 40.0488 24.5245V37.1772C40.0488 38.8488 38.6713 39.3704 36.975 39.3704C35.2818 39.3704 33.9043 38.8488 33.9043 37.1742V24.5245Z" fill="url(#paint22_radial_733_476)"/>
<path d="M37.0961 27.9287C44.9225 27.9287 51.2671 21.6767 51.2671 13.9644C51.2671 6.25206 44.9225 0 37.0961 0C29.2696 0 22.925 6.25206 22.925 13.9644C22.925 21.6767 29.2696 27.9287 37.0961 27.9287Z" fill="url(#paint23_radial_733_476)"/>
<path d="M37.0961 27.9287C44.9225 27.9287 51.2671 21.6767 51.2671 13.9644C51.2671 6.25206 44.9225 0 37.0961 0C29.2696 0 22.925 6.25206 22.925 13.9644C22.925 21.6767 29.2696 27.9287 37.0961 27.9287Z" fill="url(#paint24_radial_733_476)"/>
<path d="M37.0961 27.9287C44.9225 27.9287 51.2671 21.6767 51.2671 13.9644C51.2671 6.25206 44.9225 0 37.0961 0C29.2696 0 22.925 6.25206 22.925 13.9644C22.925 21.6767 29.2696 27.9287 37.0961 27.9287Z" fill="url(#paint25_radial_733_476)"/>
<g filter="url(#filter5_f_733_476)">
<path d="M72.8766 48.9514L39.4054 64.4104C38.6704 64.695 37.8857 64.8339 37.0962 64.8192" stroke="#7067A3" stroke-width="0.2" stroke-linecap="round"/>
</g>
<defs>
<filter id="filter0_f_733_476" x="40.5539" y="52.7452" width="32.6227" height="15.8517" filterUnits="userSpaceOnUse" color-interpolation-filters="sRGB">
<feFlood flood-opacity="0" result="BackgroundImageFix"/>
<feBlend mode="normal" in="SourceGraphic" in2="BackgroundImageFix" result="shape"/>
<feGaussianBlur stdDeviation="0.1" result="effect1_foregroundBlur_733_476"/>
</filter>
<filter id="filter1_f_733_476" x="21.3303" y="47.1857" width="31.5339" height="22.2574" filterUnits="userSpaceOnUse" color-interpolation-filters="sRGB">
<feFlood flood-opacity="0" result="BackgroundImageFix"/>
<feBlend mode="normal" in="SourceGraphic" in2="BackgroundImageFix" result="shape"/>
<feGaussianBlur stdDeviation="0.375" result="effect1_foregroundBlur_733_476"/>
</filter>
<filter id="filter2_f_733_476" x="8.02246" y="49.0216" width="8.91577" height="7.03992" filterUnits="userSpaceOnUse" color-interpolation-filters="sRGB">
<feFlood flood-opacity="0" result="BackgroundImageFix"/>
<feBlend mode="normal" in="SourceGraphic" in2="BackgroundImageFix" result="shape"/>
<feGaussianBlur stdDeviation="0.125" result="effect1_foregroundBlur_733_476"/>
</filter>
<filter id="filter3_d_733_476" x="21.6798" y="34.6848" width="30.8352" height="19.9505" filterUnits="userSpaceOnUse" color-interpolation-filters="sRGB">
<feFlood flood-opacity="0" result="BackgroundImageFix"/>
<feColorMatrix in="SourceAlpha" type="matrix" values="0 0 0 0 0 0 0 0 0 0 0 0 0 0 0 0 0 0 127 0" result="hardAlpha"/>
<feOffset dy="-0.1"/>
<feGaussianBlur stdDeviation="0.2"/>
<feComposite in2="hardAlpha" operator="out"/>
<feColorMatrix type="matrix" values="0 0 0 0 0.14902 0 0 0 0 0.0862745 0 0 0 0 0.235294 0 0 0 1 0"/>
<feBlend mode="normal" in2="BackgroundImageFix" result="effect1_dropShadow_733_476"/>
<feBlend mode="normal" in="SourceGraphic" in2="effect1_dropShadow_733_476" result="shape"/>
</filter>
<filter id="filter4_f_733_476" x="7.90444" y="46.4285" width="8.9333" height="5.68379" filterUnits="userSpaceOnUse" color-interpolation-filters="sRGB">
<feFlood flood-opacity="0" result="BackgroundImageFix"/>
<feBlend mode="normal" in="SourceGraphic" in2="BackgroundImageFix" result="shape"/>
<feGaussianBlur stdDeviation="0.075" result="effect1_foregroundBlur_733_476"/>
</filter>
<filter id="filter5_f_733_476" x="36.8961" y="48.7514" width="36.1805" height="16.2688" filterUnits="userSpaceOnUse" color-interpolation-filters="sRGB">
<feFlood flood-opacity="0" result="BackgroundImageFix"/>
<feBlend mode="normal" in="SourceGraphic" in2="BackgroundImageFix" result="shape"/>
<feGaussianBlur stdDeviation="0.05" result="effect1_foregroundBlur_733_476"/>
</filter>
<linearGradient id="paint0_linear_733_476" x1="4.28109" y1="68.3486" x2="69.5859" y2="68.3486" gradientUnits="userSpaceOnUse">
<stop stop-color="#2F2137"/>
<stop offset="0.448" stop-color="#38224A"/>
<stop offset="0.568" stop-color="#5D3E7D"/>
</linearGradient>
<linearGradient id="paint1_linear_733_476" x1="68.8739" y1="47.8046" x2="-2.12658" y2="47.8046" gradientUnits="userSpaceOnUse">
<stop stop-color="#615D8D"/>
<stop offset="1" stop-color="#5E5681"/>
</linearGradient>
<linearGradient id="paint2_linear_733_476" x1="68.8739" y1="47.8046" x2="-2.12658" y2="47.8046" gradientUnits="userSpaceOnUse">
<stop stop-color="#615D8D"/>
<stop offset="1" stop-color="#5E5681"/>
</linearGradient>
<linearGradient id="paint3_linear_733_476" x1="18.548" y1="57.526" x2="19.0437" y2="56.4953" gradientUnits="userSpaceOnUse">
<stop offset="0.269" stop-color="#4F3A84"/>
<stop offset="1" stop-color="#534177" stop-opacity="0"/>
</linearGradient>
<linearGradient id="paint4_linear_733_476" x1="53.6412" y1="58.5021" x2="52.9461" y2="57.0178" gradientUnits="userSpaceOnUse">
<stop offset="0.338" stop-color="#6152A2"/>
<stop offset="1" stop-color="#5F5887" stop-opacity="0"/>
</linearGradient>
<radialGradient id="paint5_radial_733_476" cx="0" cy="0" r="1" gradientUnits="userSpaceOnUse" gradientTransform="translate(38.3001 29.0604) rotate(90) scale(17.2505 29.541)">
<stop stop-color="#6D6F9E"/>
<stop offset="1" stop-color="#6D6F9E" stop-opacity="0"/>
</radialGradient>
<linearGradient id="paint6_linear_733_476" x1="69.7439" y1="55.1438" x2="43.061" y2="68.6124" gradientUnits="userSpaceOnUse">
<stop offset="0.896" stop-color="#69597D"/>
<stop offset="1" stop-color="#69597D" stop-opacity="0"/>
</linearGradient>
<linearGradient id="paint7_linear_733_476" x1="37.0958" y1="50.8548" x2="37.0958" y2="68.6931" gradientUnits="userSpaceOnUse">
<stop stop-color="#4D4277"/>
<stop offset="1" stop-color="#4D4277" stop-opacity="0"/>
</linearGradient>
<radialGradient id="paint8_radial_733_476" cx="0" cy="0" r="1" gradientUnits="userSpaceOnUse" gradientTransform="translate(37.0958 49.711) rotate(90) scale(7.24451 16.3208)">
<stop offset="0.329" stop-color="#281E45"/>
<stop offset="1" stop-color="#281E45" stop-opacity="0"/>
</radialGradient>
<linearGradient id="paint9_linear_733_476" x1="12.4779" y1="47.8532" x2="12.4779" y2="59.1333" gradientUnits="userSpaceOnUse">
<stop stop-color="#4D4277"/>
<stop offset="1" stop-color="#4D4277" stop-opacity="0"/>
</linearGradient>
<linearGradient id="paint10_linear_733_476" x1="69.1649" y1="58.8682" x2="-2.48565" y2="58.8682" gradientUnits="userSpaceOnUse">
<stop offset="0.431" stop-color="#6052A1"/>
<stop offset="0.464" stop-color="#4E3A83"/>
</linearGradient>
<radialGradient id="paint11_radial_733_476" cx="0" cy="0" r="1" gradientUnits="userSpaceOnUse" gradientTransform="translate(38.5012 35.1778) rotate(94.1868) scale(19.2111 37.207)">
<stop offset="0.647" stop-color="#442A5D" stop-opacity="0"/>
<stop offset="1" stop-color="#442A5D"/>
</radialGradient>
<radialGradient id="paint12_radial_733_476" cx="0" cy="0" r="1" gradientUnits="userSpaceOnUse" gradientTransform="translate(49.7873 42.4909) rotate(151.528) scale(14.4367 9.31174)">
<stop stop-color="#6F5A85"/>
<stop offset="1" stop-color="#6F5A85" stop-opacity="0"/>
</radialGradient>
<radialGradient id="paint13_radial_733_476" cx="0" cy="0" r="1" gradientUnits="userSpaceOnUse" gradientTransform="translate(27.3962 35.1769) rotate(101.91) scale(17.1897 11.1016)">
<stop stop-color="#4A3947"/>
<stop offset="1" stop-color="#4A3947" stop-opacity="0"/>
</radialGradient>
<radialGradient id="paint14_radial_733_476" cx="0" cy="0" r="1" gradientUnits="userSpaceOnUse" gradientTransform="translate(36.4861 51.285) rotate(-47.1524) scale(16.4647 16.8805)">
<stop offset="0.942" stop-color="#766F8B" stop-opacity="0.082"/>
<stop offset="0.991" stop-color="#766F8B"/>
</radialGradient>
<radialGradient id="paint15_radial_733_476" cx="0" cy="0" r="1" gradientUnits="userSpaceOnUse" gradientTransform="translate(21.4742 48.9499) rotate(-43.8154) scale(15.2827 14.9529)">
<stop stop-color="#422E3D"/>
<stop offset="1" stop-color="#422E3D" stop-opacity="0"/>
</radialGradient>
<radialGradient id="paint16_radial_733_476" cx="0" cy="0" r="1" gradientUnits="userSpaceOnUse" gradientTransform="translate(40.3354 51.3326) rotate(-139.486) scale(18.195 21.5198)">
<stop offset="0.934" stop-color="#50464D" stop-opacity="0"/>
<stop offset="1" stop-color="#50464D"/>
</radialGradient>
<radialGradient id="paint17_radial_733_476" cx="0" cy="0" r="1" gradientUnits="userSpaceOnUse" gradientTransform="translate(15.5267 49.6653) rotate(180) scale(6.67458 6.67258)">
<stop stop-color="#FF3389"/>
<stop offset="1" stop-color="#E13B63"/>
</radialGradient>
<radialGradient id="paint18_radial_733_476" cx="0" cy="0" r="1" gradientUnits="userSpaceOnUse" gradientTransform="translate(15.0996 49.8483) rotate(168.477) scale(3.4982 1.69736)">
<stop stop-color="#FF5EA3"/>
<stop offset="1" stop-color="#FF5EA3" stop-opacity="0"/>
</radialGradient>
<radialGradient id="paint19_radial_733_476" cx="0" cy="0" r="1" gradientUnits="userSpaceOnUse" gradientTransform="translate(14.3167 48.9282) rotate(166.383) scale(5.97187 5.80794)">
<stop offset="0.677" stop-color="#C52754" stop-opacity="0"/>
<stop offset="1" stop-color="#C52754"/>
</radialGradient>
<linearGradient id="paint20_linear_733_476" x1="34.9196" y1="33.9836" x2="40.5317" y2="33.9836" gradientUnits="userSpaceOnUse">
<stop stop-color="#DDB7F2"/>
<stop offset="1" stop-color="#F8EBFF"/>
</linearGradient>
<radialGradient id="paint21_radial_733_476" cx="0" cy="0" r="1" gradientUnits="userSpaceOnUse" gradientTransform="translate(37.4269 25.9948) scale(5.32125 2.87554)">
<stop stop-color="#BD7CD0"/>
<stop offset="1" stop-color="#BD7CD0" stop-opacity="0"/>
</radialGradient>
<radialGradient id="paint22_radial_733_476" cx="0" cy="0" r="1" gradientUnits="userSpaceOnUse" gradientTransform="translate(35.322 24.8478) rotate(123.45) scale(9.75427 6.20656)">
<stop offset="0.18" stop-color="#B87EBA"/>
<stop offset="1" stop-color="#BD7CD0" stop-opacity="0"/>
</radialGradient>
<radialGradient id="paint23_radial_733_476" cx="0" cy="0" r="1" gradientUnits="userSpaceOnUse" gradientTransform="translate(45.8527 8.14805) rotate(143.127) scale(16.2035 16.1386)">
<stop stop-color="#FF78AD"/>
<stop offset="1" stop-color="#FB426F"/>
</radialGradient>
<radialGradient id="paint24_radial_733_476" cx="0" cy="0" r="1" gradientUnits="userSpaceOnUse" gradientTransform="translate(45.2743 13.9705) rotate(-180) scale(22.3453 22.0195)">
<stop offset="0.543" stop-color="#CC515D" stop-opacity="0"/>
<stop offset="1" stop-color="#CC515D"/>
</radialGradient>
<radialGradient id="paint25_radial_733_476" cx="0" cy="0" r="1" gradientUnits="userSpaceOnUse" gradientTransform="translate(37.0961 6.43618) rotate(90) scale(22.4961 22.829)">
<stop offset="0.807" stop-color="#B8276B" stop-opacity="0"/>
<stop offset="1" stop-color="#B8276B"/>
</radialGradient>
</defs>
</svg>
