<svg width="143" height="26" viewBox="0 0 143 26" fill="none" xmlns="http://www.w3.org/2000/svg">
<path fill-rule="evenodd" clip-rule="evenodd" d="M14.3 0V8.76615C18.9503 6.71798 24.2407 10.1531 24.2407 15.4081V22.5649H20.4519V15.4081C20.4519 13.512 18.9503 12.0491 17.1577 12.0491C15.9471 12.0491 14.946 12.7045 14.3699 13.6583V22.641H10.2958V3.0664L14.3699 0H14.3ZM47.5503 22.8575V8.47355H51.6243V8.76615C56.1989 6.71798 61.4894 10.1531 61.4894 15.4081C61.4894 20.6689 56.2688 24.0279 51.6243 22.0558V26L47.5503 22.9336V22.8575ZM51.6243 13.5823V17.1636C52.1947 18.1116 53.2656 18.6968 54.4122 18.6968C56.1989 18.6968 57.7005 17.1636 57.7005 15.3378C57.7005 11.9788 53.4111 10.7382 51.6243 13.512V13.5823ZM70.2836 11.9788C68.782 11.9788 67.5656 12.9269 67.1407 14.2435H69.7831L73.5021 17.0173H67.3503C67.9265 18.1116 69.0672 18.767 70.2836 18.767C70.9995 18.767 71.7153 18.5505 72.2159 18.1116H76.7905C75.7196 20.6689 73.2169 22.4947 70.2836 22.4947C66.3492 22.4947 63.2064 19.282 63.2064 15.2618C63.2064 11.2474 66.3492 8.03466 70.2836 8.03466C74.8582 8.03466 78.2222 12.4177 77.1513 16.871L73.4323 14.0972C73.0016 12.7806 71.7153 11.8325 70.2836 11.8325V11.9788ZM45.9032 21.6169V0H41.8291V18.4745L45.9032 21.5467V21.6169ZM33.0349 11.9788C31.5333 11.9788 30.3169 12.9269 29.8863 14.2435H32.5344L36.2476 17.0173H30.1016C30.672 18.1116 31.8185 18.767 33.0349 18.767C33.7508 18.767 34.4609 18.5505 34.9614 18.1116H39.5418C38.4651 20.6689 35.9624 22.4947 33.0349 22.4947C29.1005 22.4947 25.9519 19.282 25.9519 15.2618C25.9519 11.2474 29.1005 8.03466 33.0349 8.03466C37.6095 8.03466 40.9677 12.4177 39.8968 16.871L36.1778 14.0972C35.7471 12.7806 34.4609 11.8325 33.0349 11.8325V11.9788ZM79.0778 8.47355H83.1519V8.76615C84.4439 8.18096 85.8 8.03466 87.2317 8.32726V12.3417C86.8709 12.1954 86.446 12.1251 85.9455 12.1251C84.7291 12.1251 83.728 12.7806 83.1519 13.7286V21.693L79.0778 18.6208V8.47355Z" fill="white"/>
<path fill-rule="evenodd" clip-rule="evenodd" d="M102.748 3.0664V22.641H98.6682V22.0558C94.0936 24.0981 88.8032 20.6689 88.8032 15.4081C88.8032 10.1531 94.0238 6.79406 98.6682 8.76615V0L102.748 3.0664ZM111.542 11.9788C110.041 11.9788 108.824 12.9269 108.394 14.2435H111.042L114.755 17.0173H108.609C109.179 18.1116 110.326 18.7671 111.542 18.7671C112.252 18.7671 112.968 18.5505 113.469 18.1116H118.049C116.972 20.6689 114.47 22.4947 111.542 22.4947C107.608 22.4947 104.459 19.282 104.459 15.2618C104.459 11.2474 107.608 8.03466 111.542 8.03466C116.117 8.03466 119.475 12.4177 118.404 16.871L114.685 14.0972C114.254 12.7806 112.968 11.8325 111.542 11.8325V11.9788ZM124.265 13.1434L125.697 18.0414L127.129 13.1434L129.131 11.6102L132.85 8.83637L127.914 22.7112H123.479L118.55 8.83637L122.263 11.6102L124.265 13.1434ZM98.6682 13.6583C96.8815 10.8085 92.5921 12.1251 92.5921 15.4841C92.5921 17.3099 94.0936 18.8431 95.8804 18.8431C97.027 18.8431 98.0979 18.1819 98.6682 17.3099V13.6583Z" fill="white"/>
<path fill-rule="evenodd" clip-rule="evenodd" d="M143 17.3802L136.563 22.641L140.282 16.2156L136.563 9.86047L143 15.0453V17.3802Z" fill="white"/>
<path fill-rule="evenodd" clip-rule="evenodd" d="M0 17.3099L6.43704 22.4947L2.71799 16.1396L6.43704 9.71417L0 14.9692V17.3099Z" fill="white"/>
</svg>
