<svg xmlns="http://www.w3.org/2000/svg" xmlns:xlink="http://www.w3.org/1999/xlink" width="128" zoomAndPan="magnify" viewBox="0 0 96 95.999999" height="128" preserveAspectRatio="xMidYMid meet" version="1.0"><path fill="#e65100" d="M 86.460938 4.898438 L 9.429688 4.898438 L 16.226562 81.929688 L 47.945312 90.992188 L 79.664062 81.929688 Z M 86.460938 4.898438 " fill-opacity="1" fill-rule="nonzero"/><path fill="#ff6d00" d="M 47.945312 11.695312 L 47.945312 83.96875 L 73.320312 76.71875 L 78.984375 11.695312 Z M 47.945312 11.695312 " fill-opacity="1" fill-rule="nonzero"/><path fill="#ffffff" d="M 47.945312 50.210938 L 47.945312 41.148438 L 67.429688 41.148438 L 65.84375 67.203125 L 47.945312 73.09375 L 47.945312 63.578125 L 57.234375 60.40625 L 57.914062 50.210938 Z M 68.109375 32.085938 L 68.789062 23.023438 L 47.945312 23.023438 L 47.945312 32.085938 Z M 68.109375 32.085938 " fill-opacity="1" fill-rule="nonzero"/><path fill="#eeeeee" d="M 47.945312 63.578125 L 47.945312 73.09375 L 30.046875 67.203125 L 29.140625 54.742188 L 38.203125 54.742188 L 38.65625 60.40625 Z M 36.84375 32.085938 L 47.945312 32.085938 L 47.945312 23.023438 L 27.328125 23.023438 L 28.914062 50.210938 L 47.945312 50.210938 L 47.945312 41.148438 L 37.523438 41.148438 Z M 36.84375 32.085938 " fill-opacity="1" fill-rule="nonzero"/></svg>