<svg xmlns="http://www.w3.org/2000/svg" xmlns:xlink="http://www.w3.org/1999/xlink" width="128" zoomAndPan="magnify" viewBox="0 0 96 95.999999" height="128" preserveAspectRatio="xMidYMid meet" version="1.0"><defs><clipPath id="c0816137ee"><path d="M 37 4.886719 L 60 4.886719 L 60 52 L 37 52 Z M 37 4.886719 " clip-rule="nonzero"/></clipPath></defs><path fill="#5382a1" d="M 37.046875 71.019531 C 37.046875 71.019531 33.769531 72.921875 39.375 73.566406 C 46.167969 74.339844 49.636719 74.226562 57.121094 72.8125 C 57.121094 72.8125 59.085938 74.042969 61.835938 75.113281 C 45.0625 82.289062 23.871094 74.695312 37.046875 71.019531 " fill-opacity="1" fill-rule="nonzero"/><path fill="#5382a1" d="M 34.996094 61.660156 C 34.996094 61.660156 31.324219 64.371094 36.933594 64.953125 C 44.183594 65.695312 49.914062 65.757812 59.828125 63.851562 C 59.828125 63.851562 61.199219 65.242188 63.355469 66 C 43.070312 71.917969 20.480469 66.46875 34.996094 61.660156 " fill-opacity="1" fill-rule="nonzero"/><path fill="#e76f00" d="M 52.277344 45.773438 C 56.410156 50.523438 51.1875 54.800781 51.1875 54.800781 C 51.1875 54.800781 61.6875 49.390625 56.867188 42.617188 C 52.363281 36.304688 48.910156 33.164062 67.601562 22.347656 C 67.601562 22.347656 38.265625 29.660156 52.277344 45.773438 " fill-opacity="1" fill-rule="nonzero"/><path fill="#5382a1" d="M 74.460938 77.949219 C 74.460938 77.949219 76.886719 79.941406 71.796875 81.484375 C 62.109375 84.410156 31.492188 85.292969 22.988281 81.601562 C 19.929688 80.273438 25.664062 78.429688 27.46875 78.042969 C 29.347656 77.636719 30.421875 77.710938 30.421875 77.710938 C 27.023438 75.320312 8.445312 82.40625 20.988281 84.433594 C 55.1875 89.96875 83.335938 81.941406 74.460938 77.949219 " fill-opacity="1" fill-rule="nonzero"/><path fill="#5382a1" d="M 38.621094 51.957031 C 38.621094 51.957031 23.046875 55.648438 33.105469 56.988281 C 37.351562 57.558594 45.820312 57.429688 53.707031 56.769531 C 60.152344 56.226562 66.625 55.070312 66.625 55.070312 C 66.625 55.070312 64.351562 56.042969 62.707031 57.164062 C 46.890625 61.316406 16.335938 59.386719 25.132812 55.136719 C 32.570312 51.550781 38.621094 51.957031 38.621094 51.957031 " fill-opacity="1" fill-rule="nonzero"/><path fill="#5382a1" d="M 66.558594 67.542969 C 82.636719 59.203125 75.203125 51.191406 70.015625 52.269531 C 68.742188 52.535156 68.175781 52.761719 68.175781 52.761719 C 68.175781 52.761719 68.648438 52.027344 69.550781 51.707031 C 79.8125 48.105469 87.710938 62.328125 66.234375 67.964844 C 66.234375 67.964844 66.484375 67.738281 66.558594 67.542969 " fill-opacity="1" fill-rule="nonzero"/><g clip-path="url(#c0816137ee)"><path fill="#e76f00" d="M 56.867188 4.878906 C 56.867188 4.878906 65.769531 13.769531 48.421875 27.4375 C 34.507812 38.402344 45.25 44.65625 48.414062 51.800781 C 40.292969 44.488281 34.335938 38.050781 38.332031 32.058594 C 44.203125 23.265625 60.457031 19 56.867188 4.878906 " fill-opacity="1" fill-rule="nonzero"/></g><path fill="#5382a1" d="M 40.199219 90.136719 C 55.632812 91.125 79.328125 89.589844 79.890625 82.304688 C 79.890625 82.304688 78.8125 85.066406 67.136719 87.257812 C 53.964844 89.730469 37.71875 89.445312 28.085938 87.859375 C 28.085938 87.859375 30.058594 89.488281 40.199219 90.136719 " fill-opacity="1" fill-rule="nonzero"/></svg>