<svg xmlns="http://www.w3.org/2000/svg" xmlns:xlink="http://www.w3.org/1999/xlink" width="128" zoomAndPan="magnify" viewBox="0 0 96 95.999999" height="128" preserveAspectRatio="xMidYMid meet" version="1.0"><defs><clipPath id="060d3b63b5"><path d="M 5.050781 5.050781 L 91.300781 5.050781 L 91.300781 91.300781 L 5.050781 91.300781 Z M 5.050781 5.050781 " clip-rule="nonzero"/></clipPath></defs><g clip-path="url(#060d3b63b5)"><path fill="#f7df1e" d="M 5.050781 5.050781 L 91.300781 5.050781 L 91.300781 91.300781 L 5.050781 91.300781 Z M 5.050781 5.050781 " fill-opacity="1" fill-rule="nonzero"/></g><path fill="#000000" d="M 27.730469 77.128906 L 34.328125 73.132812 C 35.601562 75.390625 36.761719 77.300781 39.542969 77.300781 C 42.203125 77.300781 43.882812 76.257812 43.882812 72.207031 L 43.882812 44.648438 L 51.988281 44.648438 L 51.988281 72.324219 C 51.988281 80.714844 47.066406 84.539062 39.886719 84.539062 C 33.402344 84.539062 29.640625 81.179688 27.730469 77.128906 " fill-opacity="1" fill-rule="nonzero"/><path fill="#000000" d="M 56.390625 76.257812 L 62.992188 72.4375 C 64.730469 75.273438 66.984375 77.359375 70.976562 77.359375 C 74.335938 77.359375 76.480469 75.683594 76.480469 73.363281 C 76.480469 70.585938 74.28125 69.601562 70.574219 67.980469 L 68.550781 67.109375 C 62.699219 64.621094 58.824219 61.496094 58.824219 54.894531 C 58.824219 48.816406 63.453125 44.183594 70.691406 44.183594 C 75.84375 44.183594 79.550781 45.980469 82.210938 50.667969 L 75.902344 54.722656 C 74.511719 52.234375 73.007812 51.25 70.691406 51.25 C 68.316406 51.25 66.8125 52.753906 66.8125 54.722656 C 66.8125 57.15625 68.316406 58.140625 71.789062 59.644531 L 73.816406 60.511719 C 80.707031 63.464844 84.585938 66.472656 84.585938 73.25 C 84.585938 80.542969 78.855469 84.539062 71.152344 84.539062 C 63.628906 84.539062 58.765625 80.949219 56.390625 76.257812 " fill-opacity="1" fill-rule="nonzero"/></svg>