<svg xmlns="http://www.w3.org/2000/svg" xmlns:xlink="http://www.w3.org/1999/xlink" width="128" zoomAndPan="magnify" viewBox="0 0 96 95.999999" height="128" preserveAspectRatio="xMidYMid meet" version="1.0"><defs><clipPath id="1189d3bb0b"><path d="M 5 2.84375 L 92.84375 2.84375 L 92.84375 88 L 5 88 Z M 5 2.84375 " clip-rule="nonzero"/></clipPath></defs><g clip-path="url(#1189d3bb0b)"><path fill="#0868ac" d="M 10.761719 22.554688 C 3.019531 33.6875 3.976562 48.171875 9.898438 60.03125 C 10.035156 60.316406 10.183594 60.59375 10.328125 60.875 L 10.601562 61.40625 C 10.65625 61.511719 10.71875 61.613281 10.773438 61.714844 C 10.875 61.90625 10.980469 62.082031 11.085938 62.265625 L 11.652344 63.234375 L 11.972656 63.765625 L 12.628906 64.792969 L 12.910156 65.222656 C 13.21875 65.683594 13.53125 66.144531 13.859375 66.589844 L 14.042969 66.84375 C 14.328125 67.230469 14.613281 67.613281 14.910156 67.992188 L 15.238281 68.40625 L 16.035156 69.394531 L 16.34375 69.757812 C 16.707031 70.1875 17.082031 70.617188 17.457031 71.03125 C 17.492188 71.074219 17.511719 71.085938 17.519531 71.101562 C 17.894531 71.503906 18.269531 71.902344 18.652344 72.296875 L 19.015625 72.660156 L 19.921875 73.546875 L 20.289062 73.902344 C 20.695312 74.285156 21.109375 74.664062 21.527344 75.03125 L 22.886719 76.179688 L 23.351562 76.550781 L 24.289062 77.285156 L 24.789062 77.667969 L 25.84375 78.421875 L 26.335938 78.769531 C 26.671875 79.003906 27.011719 79.222656 27.359375 79.445312 L 27.800781 79.742188 C 28.328125 80.078125 28.863281 80.402344 29.402344 80.722656 L 29.84375 80.996094 L 31.046875 81.667969 C 31.265625 81.785156 31.492188 81.898438 31.714844 82.007812 L 32.570312 82.457031 L 32.773438 82.550781 L 33.128906 82.71875 L 34.488281 83.351562 L 34.777344 83.476562 C 35.304688 83.707031 35.832031 83.925781 36.367188 84.136719 L 36.75 84.289062 L 38.25 84.847656 L 38.441406 84.910156 C 38.992188 85.101562 39.550781 85.285156 40.109375 85.457031 L 40.511719 85.578125 C 41.0625 85.75 41.652344 85.960938 42.238281 86.066406 C 79.699219 92.898438 90.574219 63.550781 90.574219 63.550781 C 81.4375 75.457031 65.214844 78.597656 49.816406 75.101562 C 49.230469 74.972656 48.664062 74.789062 48.097656 74.621094 L 47.671875 74.492188 C 47.117188 74.320312 46.566406 74.140625 46.019531 73.953125 L 45.792969 73.871094 C 45.304688 73.699219 44.820312 73.519531 44.339844 73.332031 L 43.925781 73.167969 C 43.398438 72.960938 42.875 72.742188 42.355469 72.511719 L 42.039062 72.375 L 40.714844 71.757812 L 40.332031 71.574219 C 39.984375 71.410156 39.644531 71.226562 39.304688 71.027344 L 38.621094 70.671875 C 38.203125 70.453125 37.800781 70.214844 37.390625 69.980469 L 36.972656 69.75 C 36.433594 69.429688 35.902344 69.105469 35.375 68.769531 C 35.226562 68.675781 35.085938 68.578125 34.941406 68.480469 L 33.804688 67.722656 C 33.675781 67.640625 33.53125 67.550781 33.4375 67.46875 L 32.359375 66.6875 L 31.878906 66.328125 L 30.910156 65.566406 L 30.476562 65.21875 L 29.269531 64.199219 C 29.222656 64.160156 29.179688 64.125 29.132812 64.089844 L 27.859375 62.929688 L 27.503906 62.585938 L 26.59375 61.683594 L 26.238281 61.328125 C 25.855469 60.9375 25.484375 60.542969 25.144531 60.140625 C 25.125 60.121094 25.105469 60.101562 25.089844 60.082031 C 24.703125 59.65625 24.324219 59.222656 23.953125 58.785156 L 23.679688 58.429688 L 22.859375 57.417969 L 22.585938 57.042969 L 21.636719 55.785156 C 13.054688 44.152344 9.984375 28.070312 16.808594 14.886719 M 34.808594 13.175781 C 29.203125 21.238281 29.507812 32.050781 33.878906 40.554688 C 34.609375 41.988281 35.4375 43.367188 36.355469 44.691406 C 37.195312 45.894531 38.125 47.324219 39.238281 48.289062 C 39.644531 48.738281 40.066406 49.167969 40.496094 49.59375 L 40.824219 49.925781 C 41.242188 50.332031 41.671875 50.730469 42.109375 51.117188 C 42.128906 51.128906 42.140625 51.148438 42.164062 51.164062 C 42.660156 51.601562 43.164062 51.984375 43.675781 52.414062 L 44.015625 52.679688 C 44.527344 53.078125 45.050781 53.460938 45.585938 53.828125 L 45.632812 53.859375 C 45.867188 54.023438 46.109375 54.175781 46.347656 54.332031 C 46.464844 54.40625 46.574219 54.488281 46.6875 54.558594 C 47.070312 54.804688 47.457031 55.039062 47.851562 55.269531 L 48.015625 55.363281 L 49.042969 55.910156 C 49.164062 55.980469 49.316406 56.039062 49.410156 56.105469 L 50.128906 56.476562 C 50.164062 56.496094 50.203125 56.507812 50.238281 56.523438 C 50.730469 56.769531 51.230469 57.003906 51.738281 57.222656 L 52.066406 57.359375 C 52.472656 57.53125 52.882812 57.699219 53.296875 57.855469 L 53.820312 58.046875 C 54.195312 58.183594 54.574219 58.316406 54.953125 58.441406 L 55.464844 58.605469 C 56.003906 58.769531 56.558594 58.988281 57.097656 59.078125 C 86.019531 63.871094 92.695312 41.570312 92.695312 41.570312 C 86.679688 50.242188 75.027344 54.371094 62.585938 51.144531 C 62.035156 51 61.488281 50.839844 60.945312 50.671875 C 60.78125 50.621094 60.617188 50.566406 60.453125 50.511719 L 59.304688 50.117188 L 58.757812 49.925781 C 58.34375 49.765625 57.933594 49.601562 57.527344 49.429688 L 57.191406 49.292969 C 56.683594 49.070312 56.179688 48.835938 55.683594 48.589844 L 54.925781 48.207031 L 54.488281 47.984375 C 54.164062 47.808594 53.847656 47.628906 53.53125 47.445312 L 53.300781 47.316406 C 52.90625 47.085938 52.523438 46.851562 52.140625 46.605469 C 52.023438 46.53125 51.90625 46.449219 51.789062 46.375 L 51.039062 45.875 C 50.507812 45.507812 49.988281 45.125 49.476562 44.730469 L 49.121094 44.457031 C 43.652344 40.15625 39.363281 34.28125 37.308594 27.625 C 35.160156 20.714844 35.621094 12.960938 39.347656 6.667969 M 55.027344 6.167969 C 51.730469 11.050781 51.402344 17.0625 53.695312 22.429688 C 56.109375 28.128906 61.058594 32.597656 66.839844 34.742188 L 67.558594 35.015625 L 67.875 35.113281 L 68.90625 35.386719 C 84.875 38.472656 89.203125 27.191406 90.359375 25.53125 C 86.566406 30.992188 80.191406 32.304688 72.367188 30.40625 C 71.75 30.253906 71.070312 30.03125 70.472656 29.820312 C 69.707031 29.546875 68.957031 29.238281 68.226562 28.886719 C 66.832031 28.21875 65.515625 27.414062 64.28125 26.484375 C 57.28125 21.171875 52.933594 11.011719 57.5 2.761719 " fill-opacity="1" fill-rule="nonzero"/></g></svg>