<svg xmlns="http://www.w3.org/2000/svg" xmlns:xlink="http://www.w3.org/1999/xlink" width="128" zoomAndPan="magnify" viewBox="0 0 96 95.999999" height="128" preserveAspectRatio="xMidYMid meet" version="1.0"><defs><clipPath id="f55668e2f7"><path d="M 4.808594 4.808594 L 91.058594 4.808594 L 91.058594 91.058594 L 4.808594 91.058594 Z M 4.808594 4.808594 " clip-rule="nonzero"/></clipPath></defs><g clip-path="url(#f55668e2f7)"><path fill="#000080" d="M 47.917969 15.507812 C 65.820312 15.507812 80.332031 30.019531 80.332031 47.921875 C 80.332031 65.824219 65.820312 80.335938 47.917969 80.335938 C 30.015625 80.335938 15.503906 65.824219 15.503906 47.921875 C 15.503906 30.019531 30.015625 15.507812 47.917969 15.507812 Z M 61.34375 25 C 66.589844 25 70.839844 29.253906 70.839844 34.496094 C 70.839844 39.738281 66.589844 43.988281 61.34375 43.988281 C 56.101562 43.988281 51.851562 39.738281 51.851562 34.496094 C 51.851562 29.253906 56.101562 25 61.34375 25 Z M 21.199219 17.304688 L 19.511719 15.367188 C 20.933594 14.132812 22.449219 12.976562 24.023438 11.933594 L 25.445312 14.078125 C 23.960938 15.058594 22.535156 16.144531 21.199219 17.304688 Z M 12.0625 72.015625 C 13.113281 73.582031 14.277344 75.09375 15.519531 76.507812 L 17.449219 74.808594 C 16.277344 73.480469 15.183594 72.058594 14.195312 70.585938 Z M 35.007812 9.402344 L 34.191406 6.964844 C 32.40625 7.566406 30.640625 8.289062 28.945312 9.117188 L 30.074219 11.425781 C 31.667969 10.648438 33.328125 9.964844 35.007812 9.402344 Z M 17.421875 21.066406 L 15.492188 19.367188 C 14.25 20.78125 13.085938 22.292969 12.035156 23.863281 L 14.171875 25.292969 C 15.160156 23.816406 16.253906 22.394531 17.421875 21.066406 Z M 11.503906 29.910156 L 9.199219 28.773438 C 8.363281 30.460938 7.632812 32.222656 7.027344 34.007812 L 9.457031 34.835938 C 10.03125 33.15625 10.71875 31.5 11.503906 29.910156 Z M 28.980469 86.75 C 30.675781 87.574219 32.441406 88.292969 34.230469 88.890625 L 35.042969 86.453125 C 33.359375 85.890625 31.699219 85.214844 30.105469 84.4375 Z M 7.035156 61.875 C 7.644531 63.65625 8.378906 65.414062 9.21875 67.109375 L 11.519531 65.96875 C 10.730469 64.371094 10.039062 62.714844 9.464844 61.042969 Z M 88.433594 44.792969 L 90.996094 44.59375 C 90.851562 42.714844 90.578125 40.824219 90.1875 38.980469 L 87.675781 39.511719 C 88.042969 41.246094 88.296875 43.023438 88.433594 44.792969 Z M 8.074219 39.988281 L 5.554688 39.484375 C 5.183594 41.335938 4.933594 43.226562 4.808594 45.105469 L 7.371094 45.277344 C 7.488281 43.507812 7.726562 41.730469 8.074219 39.988281 Z M 7.371094 50.609375 L 4.808594 50.777344 C 4.929688 52.660156 5.183594 54.550781 5.550781 56.402344 L 8.070312 55.894531 C 7.722656 54.15625 7.488281 52.378906 7.371094 50.609375 Z M 19.542969 80.503906 C 20.964844 81.742188 22.480469 82.898438 24.054688 83.9375 L 25.472656 81.792969 C 23.992188 80.816406 22.566406 79.730469 21.230469 78.566406 Z M 70.765625 81.523438 L 72.207031 83.648438 C 73.769531 82.589844 75.273438 81.414062 76.679688 80.164062 L 74.972656 78.246094 C 73.648438 79.421875 72.234375 80.523438 70.765625 81.523438 Z M 45.457031 7.371094 L 45.304688 4.808594 C 43.421875 4.921875 41.527344 5.160156 39.675781 5.519531 L 40.167969 8.042969 C 41.90625 7.707031 43.6875 7.480469 45.457031 7.371094 Z M 78.707031 74.445312 L 80.65625 76.121094 C 81.882812 74.691406 83.03125 73.167969 84.0625 71.585938 L 81.914062 70.183594 C 80.941406 71.667969 79.863281 73.101562 78.707031 74.445312 Z M 84.53125 65.535156 L 86.847656 66.648438 C 87.664062 64.949219 88.375 63.179688 88.960938 61.386719 L 86.519531 60.585938 C 85.96875 62.273438 85.296875 63.9375 84.53125 65.535156 Z M 88.492188 50.125 C 88.394531 51.894531 88.175781 53.675781 87.847656 55.417969 L 90.375 55.894531 C 90.722656 54.039062 90.953125 52.148438 91.058594 50.265625 Z M 88.648438 33.519531 C 88.019531 31.75 87.265625 30 86.40625 28.3125 L 84.117188 29.480469 C 84.925781 31.066406 85.632812 32.714844 86.226562 34.378906 Z M 39.714844 90.332031 C 41.566406 90.695312 43.457031 90.933594 45.339844 91.046875 L 45.496094 88.484375 C 43.726562 88.375 41.945312 88.148438 40.203125 87.8125 Z M 56.59375 5.605469 C 54.746094 5.230469 52.855469 4.96875 50.972656 4.835938 L 50.792969 7.398438 C 52.5625 7.523438 54.339844 7.769531 56.078125 8.125 Z M 50.828125 88.457031 L 51.011719 91.019531 C 52.890625 90.882812 54.78125 90.625 56.628906 90.242188 L 56.109375 87.726562 C 54.375 88.082031 52.597656 88.328125 50.828125 88.457031 Z M 67.285156 9.3125 C 65.597656 8.464844 63.84375 7.726562 62.058594 7.109375 L 61.21875 9.535156 C 62.894531 10.117188 64.546875 10.8125 66.132812 11.609375 Z M 61.25 86.304688 L 62.097656 88.730469 C 63.871094 88.113281 65.628906 87.367188 67.316406 86.515625 L 66.164062 84.222656 C 64.574219 85.019531 62.917969 85.722656 61.25 86.304688 Z M 80.335938 25 C 85.578125 25 89.828125 20.75 89.828125 15.507812 C 89.828125 10.261719 85.578125 6.011719 80.335938 6.011719 C 75.089844 6.011719 70.839844 10.261719 70.839844 15.507812 C 70.839844 20.75 75.089844 25 80.335938 25 Z M 80.335938 25 " fill-opacity="1" fill-rule="evenodd"/></g></svg>