<svg width="50" height="31" viewBox="0 0 50 31" fill="none" xmlns="http://www.w3.org/2000/svg">
<path d="M25 0C26.9339 0 28.7885 0.78836 30.156 2.19165C31.5234 3.59494 32.2917 5.49821 32.2917 7.48276C32.2917 9.46731 31.5234 11.3706 30.156 12.7739C28.7885 14.1772 26.9339 14.9655 25 14.9655C23.0661 14.9655 21.2115 14.1772 19.844 12.7739C18.4766 11.3706 17.7083 9.46731 17.7083 7.48276C17.7083 5.49821 18.4766 3.59494 19.844 2.19165C21.2115 0.78836 23.0661 0 25 0ZM10.4167 5.34483C11.5833 5.34483 12.6667 5.66552 13.6042 6.24276C13.2917 9.3 14.1667 12.3359 15.9583 14.709C14.9167 16.7614 12.8333 18.1724 10.4167 18.1724C8.75906 18.1724 7.16935 17.4967 5.99725 16.2939C4.82515 15.091 4.16667 13.4597 4.16667 11.7586C4.16667 10.0576 4.82515 8.4262 5.99725 7.22338C7.16935 6.02056 8.75906 5.34483 10.4167 5.34483ZM39.5833 5.34483C41.2409 5.34483 42.8306 6.02056 44.0028 7.22338C45.1749 8.4262 45.8333 10.0576 45.8333 11.7586C45.8333 13.4597 45.1749 15.091 44.0028 16.2939C42.8306 17.4967 41.2409 18.1724 39.5833 18.1724C37.1667 18.1724 35.0833 16.7614 34.0417 14.709C35.8581 12.3026 36.7012 9.27049 36.3958 6.24276C37.3333 5.66552 38.4167 5.34483 39.5833 5.34483ZM11.4583 27.2586C11.4583 22.8331 17.5208 19.2414 25 19.2414C32.4792 19.2414 38.5417 22.8331 38.5417 27.2586V31H11.4583V27.2586ZM0 31V27.7931C0 24.8214 3.9375 22.32 9.27083 21.5931C8.04167 23.0469 7.29167 25.0566 7.29167 27.2586V31H0ZM50 31H42.7083V27.2586C42.7083 25.0566 41.9583 23.0469 40.7292 21.5931C46.0625 22.32 50 24.8214 50 27.7931V31Z" fill="#252525"/>
</svg>
