<svg xmlns="http://www.w3.org/2000/svg" xmlns:xlink="http://www.w3.org/1999/xlink" width="128" zoomAndPan="magnify" viewBox="0 0 96 95.999999" height="128" preserveAspectRatio="xMidYMid meet" version="1.0"><defs><clipPath id="cdea439e91"><path d="M 8.746094 4.734375 L 87.496094 4.734375 L 87.496094 90.984375 L 8.746094 90.984375 Z M 8.746094 4.734375 " clip-rule="nonzero"/></clipPath></defs><g clip-path="url(#cdea439e91)"><path fill="#8cc84b" d="M 44.484375 5.878906 C 46.648438 4.664062 49.40625 4.660156 51.515625 5.878906 L 83.816406 23.972656 C 85.835938 25.101562 87.1875 27.339844 87.167969 29.652344 L 87.167969 65.925781 C 87.179688 68.335938 85.695312 70.621094 83.566406 71.730469 L 51.441406 89.738281 C 50.890625 90.039062 50.3125 90.261719 49.703125 90.410156 C 49.09375 90.558594 48.472656 90.621094 47.847656 90.605469 C 47.21875 90.589844 46.605469 90.488281 46.003906 90.308594 C 45.402344 90.128906 44.835938 89.871094 44.304688 89.539062 L 34.664062 84.003906 C 34.007812 83.617188 33.269531 83.308594 32.804688 82.675781 C 33.214844 82.128906 33.945312 82.058594 34.539062 81.816406 C 35.882812 81.390625 37.109375 80.742188 38.34375 80.054688 C 38.652344 79.839844 39.035156 79.917969 39.332031 80.113281 L 47.550781 84.835938 C 48.140625 85.171875 48.734375 84.726562 49.238281 84.445312 L 80.78125 66.757812 C 81.171875 66.570312 81.386719 66.160156 81.355469 65.738281 L 81.355469 29.8125 C 81.398438 29.328125 81.117188 28.890625 80.679688 28.691406 L 48.632812 10.761719 C 48.445312 10.632812 48.234375 10.566406 48.007812 10.566406 C 47.777344 10.566406 47.566406 10.632812 47.375 10.761719 L 15.378906 28.726562 C 14.945312 28.921875 14.648438 29.359375 14.703125 29.84375 L 14.703125 65.765625 C 14.664062 66.191406 14.890625 66.589844 15.285156 66.773438 L 23.835938 71.570312 C 25.441406 72.429688 27.414062 72.914062 29.179688 72.28125 C 29.566406 72.136719 29.925781 71.9375 30.25 71.683594 C 30.574219 71.433594 30.855469 71.136719 31.089844 70.796875 C 31.324219 70.460938 31.503906 70.09375 31.625 69.703125 C 31.746094 69.308594 31.808594 68.90625 31.804688 68.496094 L 31.816406 32.789062 C 31.777344 32.257812 32.28125 31.820312 32.796875 31.875 L 36.90625 31.875 C 37.449219 31.859375 37.871094 32.429688 37.796875 32.960938 L 37.789062 68.898438 C 37.792969 72.089844 36.472656 75.5625 33.5 77.128906 C 29.839844 79.007812 25.3125 78.613281 21.695312 76.804688 L 12.5 71.753906 C 10.339844 70.679688 8.886719 68.355469 8.898438 65.949219 L 8.898438 29.675781 C 8.902344 29.085938 8.988281 28.507812 9.148438 27.941406 C 9.308594 27.371094 9.539062 26.835938 9.84375 26.332031 C 10.148438 25.824219 10.515625 25.367188 10.945312 24.960938 C 11.371094 24.550781 11.84375 24.207031 12.367188 23.921875 Z M 53.800781 31.023438 C 58.46875 30.757812 63.46875 30.847656 67.671875 33.132812 C 70.925781 34.886719 72.726562 38.5625 72.789062 42.15625 C 72.695312 42.640625 72.1875 42.910156 71.722656 42.875 C 70.371094 42.871094 69.011719 42.894531 67.65625 42.867188 C 67.078125 42.886719 66.746094 42.359375 66.671875 41.855469 C 66.285156 40.136719 65.339844 38.433594 63.710938 37.605469 C 61.214844 36.359375 58.316406 36.421875 55.589844 36.449219 C 53.597656 36.558594 51.460938 36.726562 49.777344 37.886719 C 48.476562 38.769531 48.089844 40.574219 48.550781 41.976562 C 48.984375 43.007812 50.179688 43.335938 51.15625 43.644531 C 56.789062 45.105469 62.75 44.984375 68.273438 46.886719 C 70.558594 47.671875 72.796875 49.195312 73.578125 51.574219 C 74.601562 54.761719 74.15625 58.570312 71.875 61.128906 C 70.027344 63.234375 67.332031 64.351562 64.644531 65.003906 C 61.066406 65.796875 57.355469 65.816406 53.722656 65.460938 C 50.308594 65.074219 46.753906 64.179688 44.117188 61.871094 C 41.863281 59.925781 40.765625 56.894531 40.875 53.972656 C 40.902344 53.476562 41.394531 53.132812 41.875 53.171875 L 45.929688 53.171875 C 46.476562 53.136719 46.875 53.601562 46.902344 54.113281 C 47.15625 55.726562 47.773438 57.472656 49.214844 58.414062 C 51.988281 60.191406 55.46875 60.066406 58.640625 60.117188 C 61.273438 60.003906 64.226562 59.96875 66.375 58.238281 C 67.511719 57.25 67.84375 55.605469 67.539062 54.1875 C 67.207031 52.988281 65.917969 52.429688 64.835938 52.035156 C 59.277344 50.289062 53.246094 50.925781 47.746094 48.945312 C 45.511719 48.164062 43.351562 46.679688 42.492188 44.398438 C 41.296875 41.171875 41.84375 37.179688 44.367188 34.707031 C 46.800781 32.246094 50.371094 31.300781 53.75 30.960938 Z M 53.800781 31.023438 " fill-opacity="1" fill-rule="nonzero"/></g></svg>