<svg xmlns="http://www.w3.org/2000/svg" xmlns:xlink="http://www.w3.org/1999/xlink" width="128" zoomAndPan="magnify" viewBox="0 0 96 95.999999" height="128" preserveAspectRatio="xMidYMid meet" version="1.0"><defs><clipPath id="36ec45672a"><path d="M 3.234375 24.804688 L 92.96875 24.804688 L 92.96875 71.304688 L 3.234375 71.304688 Z M 3.234375 24.804688 " clip-rule="nonzero"/></clipPath><clipPath id="02fda0dd47"><path d="M 3.316406 48.085938 C 3.316406 60.929688 23.367188 71.339844 48.101562 71.339844 C 72.832031 71.339844 92.882812 60.929688 92.882812 48.085938 C 92.882812 35.246094 72.832031 24.835938 48.101562 24.835938 C 23.367188 24.835938 3.316406 35.246094 3.316406 48.085938 " clip-rule="nonzero"/></clipPath><clipPath id="79990cb6c1"><path d="M 3.316406 48.085938 C 3.316406 60.929688 23.367188 71.339844 48.101562 71.339844 C 72.832031 71.339844 92.882812 60.929688 92.882812 48.085938 C 92.882812 35.246094 72.832031 24.835938 48.101562 24.835938 C 23.367188 24.835938 3.316406 35.246094 3.316406 48.085938 " clip-rule="nonzero"/></clipPath><radialGradient gradientTransform="matrix(1.006521, 0, 0, 0.993479, 30.20516, 33.009317)" gradientUnits="userSpaceOnUse" r="58.426788" cx="0" id="3829c94574" cy="0" fx="0" fy="0"><stop stop-opacity="1" stop-color="rgb(68.199158%, 69.799805%, 83.499146%)" offset="0"/><stop stop-opacity="1" stop-color="rgb(68.199158%, 69.799805%, 83.499146%)" offset="0.25"/><stop stop-opacity="1" stop-color="rgb(68.164062%, 69.764709%, 83.473206%)" offset="0.296875"/><stop stop-opacity="1" stop-color="rgb(67.956543%, 69.555664%, 83.317566%)" offset="0.300781"/><stop stop-opacity="1" stop-color="rgb(67.608643%, 69.20929%, 83.059692%)" offset="0.304688"/><stop stop-opacity="1" stop-color="rgb(67.260742%, 68.861389%, 82.800293%)" offset="0.308594"/><stop stop-opacity="1" stop-color="rgb(66.914368%, 68.513489%, 82.542419%)" offset="0.3125"/><stop stop-opacity="1" stop-color="rgb(66.566467%, 68.167114%, 82.28302%)" offset="0.316406"/><stop stop-opacity="1" stop-color="rgb(66.220093%, 67.819214%, 82.025146%)" offset="0.320312"/><stop stop-opacity="1" stop-color="rgb(65.872192%, 67.472839%, 81.765747%)" offset="0.324219"/><stop stop-opacity="1" stop-color="rgb(65.525818%, 67.124939%, 81.506348%)" offset="0.328125"/><stop stop-opacity="1" stop-color="rgb(65.177917%, 66.778564%, 81.248474%)" offset="0.332031"/><stop stop-opacity="1" stop-color="rgb(64.831543%, 66.430664%, 80.989075%)" offset="0.335938"/><stop stop-opacity="1" stop-color="rgb(64.483643%, 66.08429%, 80.731201%)" offset="0.339844"/><stop stop-opacity="1" stop-color="rgb(64.135742%, 65.736389%, 80.471802%)" offset="0.34375"/><stop stop-opacity="1" stop-color="rgb(63.789368%, 65.388489%, 80.213928%)" offset="0.347656"/><stop stop-opacity="1" stop-color="rgb(63.441467%, 65.042114%, 79.954529%)" offset="0.351562"/><stop stop-opacity="1" stop-color="rgb(63.095093%, 64.694214%, 79.696655%)" offset="0.355469"/><stop stop-opacity="1" stop-color="rgb(62.747192%, 64.347839%, 79.437256%)" offset="0.359375"/><stop stop-opacity="1" stop-color="rgb(62.400818%, 63.999939%, 79.179382%)" offset="0.363281"/><stop stop-opacity="1" stop-color="rgb(62.052917%, 63.653564%, 78.919983%)" offset="0.367188"/><stop stop-opacity="1" stop-color="rgb(61.706543%, 63.305664%, 78.662109%)" offset="0.371094"/><stop stop-opacity="1" stop-color="rgb(61.358643%, 62.95929%, 78.40271%)" offset="0.375"/><stop stop-opacity="1" stop-color="rgb(61.010742%, 62.611389%, 78.144836%)" offset="0.378906"/><stop stop-opacity="1" stop-color="rgb(60.664368%, 62.263489%, 77.885437%)" offset="0.382812"/><stop stop-opacity="1" stop-color="rgb(60.316467%, 61.917114%, 77.627563%)" offset="0.386719"/><stop stop-opacity="1" stop-color="rgb(59.970093%, 61.569214%, 77.368164%)" offset="0.390625"/><stop stop-opacity="1" stop-color="rgb(59.622192%, 61.222839%, 77.108765%)" offset="0.394531"/><stop stop-opacity="1" stop-color="rgb(59.275818%, 60.874939%, 76.850891%)" offset="0.398438"/><stop stop-opacity="1" stop-color="rgb(58.927917%, 60.528564%, 76.591492%)" offset="0.402344"/><stop stop-opacity="1" stop-color="rgb(58.581543%, 60.180664%, 76.333618%)" offset="0.40625"/><stop stop-opacity="1" stop-color="rgb(58.233643%, 59.83429%, 76.074219%)" offset="0.410156"/><stop stop-opacity="1" stop-color="rgb(57.885742%, 59.486389%, 75.816345%)" offset="0.414062"/><stop stop-opacity="1" stop-color="rgb(57.539368%, 59.138489%, 75.556946%)" offset="0.417969"/><stop stop-opacity="1" stop-color="rgb(57.191467%, 58.792114%, 75.299072%)" offset="0.421875"/><stop stop-opacity="1" stop-color="rgb(56.845093%, 58.444214%, 75.039673%)" offset="0.425781"/><stop stop-opacity="1" stop-color="rgb(56.497192%, 58.097839%, 74.781799%)" offset="0.429688"/><stop stop-opacity="1" stop-color="rgb(56.150818%, 57.749939%, 74.5224%)" offset="0.433594"/><stop stop-opacity="1" stop-color="rgb(55.802917%, 57.403564%, 74.264526%)" offset="0.4375"/><stop stop-opacity="1" stop-color="rgb(55.456543%, 57.055664%, 74.005127%)" offset="0.441406"/><stop stop-opacity="1" stop-color="rgb(55.108643%, 56.70929%, 73.747253%)" offset="0.445312"/><stop stop-opacity="1" stop-color="rgb(54.760742%, 56.361389%, 73.487854%)" offset="0.449219"/><stop stop-opacity="1" stop-color="rgb(54.414368%, 56.013489%, 73.22998%)" offset="0.453125"/><stop stop-opacity="1" stop-color="rgb(54.066467%, 55.667114%, 72.970581%)" offset="0.457031"/><stop stop-opacity="1" stop-color="rgb(53.720093%, 55.319214%, 72.711182%)" offset="0.460938"/><stop stop-opacity="1" stop-color="rgb(53.372192%, 54.972839%, 72.453308%)" offset="0.464844"/><stop stop-opacity="1" stop-color="rgb(53.025818%, 54.624939%, 72.193909%)" offset="0.46875"/><stop stop-opacity="1" stop-color="rgb(52.677917%, 54.278564%, 71.936035%)" offset="0.472656"/><stop stop-opacity="1" stop-color="rgb(52.331543%, 53.930664%, 71.676636%)" offset="0.476562"/><stop stop-opacity="1" stop-color="rgb(51.983643%, 53.58429%, 71.418762%)" offset="0.480469"/><stop stop-opacity="1" stop-color="rgb(51.635742%, 53.236389%, 71.159363%)" offset="0.484375"/><stop stop-opacity="1" stop-color="rgb(51.289368%, 52.888489%, 70.901489%)" offset="0.488281"/><stop stop-opacity="1" stop-color="rgb(50.941467%, 52.542114%, 70.64209%)" offset="0.492188"/><stop stop-opacity="1" stop-color="rgb(50.595093%, 52.194214%, 70.384216%)" offset="0.496094"/><stop stop-opacity="1" stop-color="rgb(50.247192%, 51.847839%, 70.124817%)" offset="0.5"/><stop stop-opacity="1" stop-color="rgb(49.900818%, 51.499939%, 69.866943%)" offset="0.503906"/><stop stop-opacity="1" stop-color="rgb(49.552917%, 51.153564%, 69.607544%)" offset="0.507812"/><stop stop-opacity="1" stop-color="rgb(49.206543%, 50.805664%, 69.34967%)" offset="0.511719"/><stop stop-opacity="1" stop-color="rgb(48.858643%, 50.45929%, 69.090271%)" offset="0.515625"/><stop stop-opacity="1" stop-color="rgb(48.510742%, 50.111389%, 68.832397%)" offset="0.519531"/><stop stop-opacity="1" stop-color="rgb(48.164368%, 49.763489%, 68.572998%)" offset="0.523438"/><stop stop-opacity="1" stop-color="rgb(47.816467%, 49.417114%, 68.313599%)" offset="0.527344"/><stop stop-opacity="1" stop-color="rgb(47.470093%, 49.069214%, 68.055725%)" offset="0.53125"/><stop stop-opacity="1" stop-color="rgb(47.122192%, 48.722839%, 67.796326%)" offset="0.535156"/><stop stop-opacity="1" stop-color="rgb(46.775818%, 48.374939%, 67.538452%)" offset="0.539062"/><stop stop-opacity="1" stop-color="rgb(46.427917%, 48.028564%, 67.279053%)" offset="0.542969"/><stop stop-opacity="1" stop-color="rgb(46.081543%, 47.680664%, 67.021179%)" offset="0.546875"/><stop stop-opacity="1" stop-color="rgb(45.733643%, 47.33429%, 66.76178%)" offset="0.550781"/><stop stop-opacity="1" stop-color="rgb(45.385742%, 46.986389%, 66.503906%)" offset="0.554688"/><stop stop-opacity="1" stop-color="rgb(45.039368%, 46.638489%, 66.244507%)" offset="0.558594"/><stop stop-opacity="1" stop-color="rgb(44.691467%, 46.292114%, 65.986633%)" offset="0.5625"/><stop stop-opacity="1" stop-color="rgb(44.345093%, 45.944214%, 65.727234%)" offset="0.566406"/><stop stop-opacity="1" stop-color="rgb(43.997192%, 45.597839%, 65.46936%)" offset="0.570312"/><stop stop-opacity="1" stop-color="rgb(43.650818%, 45.249939%, 65.209961%)" offset="0.574219"/><stop stop-opacity="1" stop-color="rgb(43.302917%, 44.903564%, 64.952087%)" offset="0.578125"/><stop stop-opacity="1" stop-color="rgb(42.956543%, 44.555664%, 64.692688%)" offset="0.582031"/><stop stop-opacity="1" stop-color="rgb(42.608643%, 44.20929%, 64.434814%)" offset="0.585938"/><stop stop-opacity="1" stop-color="rgb(42.260742%, 43.861389%, 64.175415%)" offset="0.589844"/><stop stop-opacity="1" stop-color="rgb(41.914368%, 43.513489%, 63.916016%)" offset="0.59375"/><stop stop-opacity="1" stop-color="rgb(41.566467%, 43.167114%, 63.658142%)" offset="0.597656"/><stop stop-opacity="1" stop-color="rgb(41.220093%, 42.819214%, 63.398743%)" offset="0.601562"/><stop stop-opacity="1" stop-color="rgb(40.872192%, 42.472839%, 63.140869%)" offset="0.605469"/><stop stop-opacity="1" stop-color="rgb(40.525818%, 42.124939%, 62.88147%)" offset="0.609375"/><stop stop-opacity="1" stop-color="rgb(40.177917%, 41.778564%, 62.623596%)" offset="0.613281"/><stop stop-opacity="1" stop-color="rgb(39.831543%, 41.430664%, 62.364197%)" offset="0.617188"/><stop stop-opacity="1" stop-color="rgb(39.483643%, 41.08429%, 62.106323%)" offset="0.621094"/><stop stop-opacity="1" stop-color="rgb(39.135742%, 40.736389%, 61.846924%)" offset="0.625"/><stop stop-opacity="1" stop-color="rgb(38.789368%, 40.388489%, 61.58905%)" offset="0.628906"/><stop stop-opacity="1" stop-color="rgb(38.441467%, 40.042114%, 61.329651%)" offset="0.632812"/><stop stop-opacity="1" stop-color="rgb(38.095093%, 39.694214%, 61.071777%)" offset="0.636719"/><stop stop-opacity="1" stop-color="rgb(37.747192%, 39.347839%, 60.812378%)" offset="0.640625"/><stop stop-opacity="1" stop-color="rgb(37.400818%, 38.999939%, 60.554504%)" offset="0.644531"/><stop stop-opacity="1" stop-color="rgb(37.052917%, 38.653564%, 60.295105%)" offset="0.648438"/><stop stop-opacity="1" stop-color="rgb(36.706543%, 38.305664%, 60.037231%)" offset="0.652344"/><stop stop-opacity="1" stop-color="rgb(36.358643%, 37.95929%, 59.777832%)" offset="0.65625"/><stop stop-opacity="1" stop-color="rgb(36.010742%, 37.611389%, 59.518433%)" offset="0.660156"/><stop stop-opacity="1" stop-color="rgb(35.664368%, 37.263489%, 59.260559%)" offset="0.664062"/><stop stop-opacity="1" stop-color="rgb(35.316467%, 36.917114%, 59.00116%)" offset="0.667969"/><stop stop-opacity="1" stop-color="rgb(34.970093%, 36.569214%, 58.743286%)" offset="0.671875"/><stop stop-opacity="1" stop-color="rgb(34.622192%, 36.222839%, 58.483887%)" offset="0.675781"/><stop stop-opacity="1" stop-color="rgb(34.275818%, 35.874939%, 58.226013%)" offset="0.679688"/><stop stop-opacity="1" stop-color="rgb(33.927917%, 35.528564%, 57.966614%)" offset="0.683594"/><stop stop-opacity="1" stop-color="rgb(33.581543%, 35.180664%, 57.70874%)" offset="0.6875"/><stop stop-opacity="1" stop-color="rgb(33.233643%, 34.83429%, 57.449341%)" offset="0.691406"/><stop stop-opacity="1" stop-color="rgb(32.885742%, 34.486389%, 57.191467%)" offset="0.695312"/><stop stop-opacity="1" stop-color="rgb(32.539368%, 34.138489%, 56.932068%)" offset="0.699219"/><stop stop-opacity="1" stop-color="rgb(32.191467%, 33.792114%, 56.674194%)" offset="0.703125"/><stop stop-opacity="1" stop-color="rgb(31.845093%, 33.444214%, 56.414795%)" offset="0.707031"/><stop stop-opacity="1" stop-color="rgb(31.497192%, 33.097839%, 56.156921%)" offset="0.710938"/><stop stop-opacity="1" stop-color="rgb(31.150818%, 32.749939%, 55.897522%)" offset="0.714844"/><stop stop-opacity="1" stop-color="rgb(30.802917%, 32.403564%, 55.639648%)" offset="0.71875"/><stop stop-opacity="1" stop-color="rgb(30.456543%, 32.055664%, 55.380249%)" offset="0.722656"/><stop stop-opacity="1" stop-color="rgb(30.108643%, 31.70929%, 55.122375%)" offset="0.726562"/><stop stop-opacity="1" stop-color="rgb(29.760742%, 31.361389%, 54.862976%)" offset="0.730469"/><stop stop-opacity="1" stop-color="rgb(29.414368%, 31.013489%, 54.603577%)" offset="0.734375"/><stop stop-opacity="1" stop-color="rgb(29.066467%, 30.667114%, 54.345703%)" offset="0.738281"/><stop stop-opacity="1" stop-color="rgb(28.720093%, 30.319214%, 54.086304%)" offset="0.742188"/><stop stop-opacity="1" stop-color="rgb(28.372192%, 29.972839%, 53.82843%)" offset="0.746094"/><stop stop-opacity="1" stop-color="rgb(28.199768%, 29.798889%, 53.69873%)" offset="1"/></radialGradient></defs><g clip-path="url(#36ec45672a)"><g clip-path="url(#02fda0dd47)"><g clip-path="url(#79990cb6c1)"><path fill="url(#3829c94574)" d="M 3.316406 24.835938 L 3.316406 71.304688 L 92.882812 71.304688 L 92.882812 24.835938 Z M 3.316406 24.835938 " fill-rule="nonzero"/></g></g></g><path fill="#777bb3" d="M 48.101562 69.613281 C 71.867188 69.613281 91.136719 59.976562 91.136719 48.085938 C 91.136719 36.199219 71.867188 26.5625 48.101562 26.5625 C 24.332031 26.5625 5.066406 36.199219 5.066406 48.085938 C 5.066406 59.976562 24.332031 69.613281 48.101562 69.613281 " fill-opacity="1" fill-rule="nonzero"/><path fill="#000000" d="M 27.648438 50.757812 C 29.601562 50.757812 31.0625 50.398438 31.984375 49.699219 C 32.898438 49.003906 33.527344 47.800781 33.859375 46.125 C 34.167969 44.558594 34.050781 43.460938 33.507812 42.871094 C 32.957031 42.269531 31.765625 41.960938 29.964844 41.960938 L 26.839844 41.960938 L 25.109375 50.757812 Z M 17.433594 61.589844 C 17.289062 61.589844 17.152344 61.523438 17.058594 61.414062 C 16.960938 61.296875 16.925781 61.164062 16.957031 61.015625 L 21.542969 37.714844 C 21.566406 37.601562 21.621094 37.507812 21.710938 37.4375 C 21.800781 37.363281 21.90625 37.328125 22.023438 37.328125 L 31.910156 37.328125 C 35.019531 37.328125 37.332031 38.15625 38.785156 39.804688 C 40.25 41.453125 40.699219 43.761719 40.128906 46.664062 C 39.894531 47.847656 39.496094 48.945312 38.941406 49.929688 C 38.382812 50.910156 37.644531 51.824219 36.75 52.632812 C 35.679688 53.625 34.464844 54.34375 33.148438 54.765625 C 31.851562 55.183594 30.1875 55.394531 28.203125 55.394531 L 24.195312 55.394531 L 23.054688 61.199219 C 23.03125 61.3125 22.976562 61.40625 22.886719 61.480469 C 22.796875 61.550781 22.691406 61.589844 22.578125 61.589844 Z M 17.433594 61.589844 " fill-opacity="1" fill-rule="nonzero"/><path fill="#ffffff" d="M 27.242188 42.441406 L 29.964844 42.441406 C 32.136719 42.441406 32.890625 42.914062 33.148438 43.195312 C 33.574219 43.660156 33.65625 44.640625 33.382812 46.035156 C 33.074219 47.59375 32.503906 48.699219 31.6875 49.320312 C 30.851562 49.953125 29.492188 50.277344 27.648438 50.277344 L 25.699219 50.277344 Z M 31.910156 36.847656 L 22.023438 36.847656 C 21.789062 36.847656 21.582031 36.917969 21.402344 37.066406 C 21.222656 37.210938 21.113281 37.398438 21.066406 37.621094 L 16.480469 60.925781 C 16.453125 61.066406 16.457031 61.207031 16.492188 61.347656 C 16.527344 61.484375 16.589844 61.609375 16.683594 61.71875 C 16.777344 61.832031 16.886719 61.917969 17.019531 61.976562 C 17.152344 62.039062 17.289062 62.070312 17.433594 62.070312 L 22.578125 62.070312 C 22.808594 62.070312 23.015625 61.996094 23.195312 61.851562 C 23.375 61.703125 23.484375 61.519531 23.53125 61.292969 L 24.597656 55.875 L 28.203125 55.875 C 30.238281 55.875 31.957031 55.652344 33.300781 55.222656 C 34.683594 54.777344 35.957031 54.027344 37.082031 52.984375 C 38.015625 52.140625 38.785156 51.191406 39.363281 50.164062 C 39.945312 49.136719 40.363281 47.988281 40.605469 46.757812 C 41.207031 43.703125 40.71875 41.257812 39.152344 39.488281 C 37.601562 37.734375 35.167969 36.847656 31.910156 36.847656 M 24.519531 51.238281 L 27.648438 51.238281 C 29.722656 51.238281 31.265625 50.851562 32.28125 50.082031 C 33.296875 49.308594 33.980469 48.023438 34.335938 46.21875 C 34.675781 44.488281 34.523438 43.265625 33.871094 42.550781 C 33.222656 41.839844 31.917969 41.484375 29.964844 41.484375 L 26.441406 41.484375 L 24.519531 51.238281 M 31.910156 37.808594 C 34.886719 37.808594 37.058594 38.578125 38.421875 40.117188 C 39.785156 41.660156 40.195312 43.8125 39.652344 46.574219 C 39.429688 47.710938 39.050781 48.753906 38.515625 49.695312 C 37.984375 50.636719 37.285156 51.5 36.421875 52.28125 C 35.394531 53.230469 34.253906 53.90625 33 54.308594 C 31.746094 54.714844 30.144531 54.914062 28.203125 54.914062 L 23.796875 54.914062 L 22.578125 61.109375 L 17.433594 61.109375 L 22.023438 37.808594 L 31.914062 37.808594 " fill-opacity="1" fill-rule="nonzero"/><path fill="#000000" d="M 51.921875 55.390625 C 51.773438 55.390625 51.636719 55.328125 51.546875 55.21875 C 51.453125 55.105469 51.414062 54.960938 51.441406 54.820312 L 53.472656 44.511719 C 53.664062 43.53125 53.617188 42.828125 53.339844 42.527344 C 53.167969 42.347656 52.652344 42.042969 51.132812 42.042969 L 47.457031 42.042969 L 44.90625 55.003906 C 44.882812 55.117188 44.828125 55.210938 44.738281 55.28125 C 44.648438 55.355469 44.542969 55.390625 44.429688 55.390625 L 39.324219 55.390625 C 39.171875 55.390625 39.046875 55.335938 38.953125 55.21875 C 38.855469 55.101562 38.820312 54.96875 38.847656 54.820312 L 43.4375 31.519531 C 43.460938 31.40625 43.515625 31.3125 43.605469 31.238281 C 43.695312 31.167969 43.796875 31.128906 43.914062 31.128906 L 49.015625 31.128906 C 49.167969 31.128906 49.292969 31.1875 49.390625 31.304688 C 49.488281 31.421875 49.523438 31.554688 49.492188 31.703125 L 48.386719 37.324219 L 52.34375 37.324219 C 55.355469 37.324219 57.398438 37.851562 58.589844 38.929688 C 59.804688 40.03125 60.183594 41.789062 59.714844 44.160156 L 57.582031 55.003906 C 57.558594 55.117188 57.503906 55.210938 57.414062 55.28125 C 57.324219 55.355469 57.21875 55.394531 57.101562 55.394531 L 51.921875 55.394531 Z M 51.921875 55.390625 " fill-opacity="1" fill-rule="nonzero"/><path fill="#ffffff" d="M 49.015625 30.652344 L 43.914062 30.652344 C 43.683594 30.652344 43.476562 30.722656 43.296875 30.871094 C 43.117188 31.015625 43.003906 31.203125 42.960938 31.425781 L 38.371094 54.730469 C 38.34375 54.871094 38.347656 55.011719 38.382812 55.148438 C 38.421875 55.289062 38.484375 55.414062 38.578125 55.523438 C 38.667969 55.632812 38.78125 55.71875 38.910156 55.78125 C 39.042969 55.839844 39.179688 55.871094 39.328125 55.871094 L 44.429688 55.871094 C 44.660156 55.871094 44.867188 55.800781 45.046875 55.652344 C 45.226562 55.507812 45.339844 55.320312 45.382812 55.09375 L 47.859375 42.523438 L 51.136719 42.523438 C 52.652344 42.523438 52.96875 42.839844 52.984375 42.855469 C 53.074219 42.953125 53.195312 43.40625 52.996094 44.417969 L 50.964844 54.730469 C 50.9375 54.871094 50.941406 55.011719 50.980469 55.148438 C 51.015625 55.289062 51.078125 55.414062 51.171875 55.523438 C 51.261719 55.632812 51.375 55.71875 51.507812 55.78125 C 51.636719 55.839844 51.777344 55.871094 51.921875 55.871094 L 57.105469 55.871094 C 57.335938 55.871094 57.542969 55.800781 57.722656 55.652344 C 57.902344 55.507812 58.011719 55.320312 58.058594 55.09375 L 60.191406 44.25 C 60.695312 41.707031 60.265625 39.796875 58.917969 38.574219 C 57.636719 37.414062 55.484375 36.847656 52.34375 36.847656 L 48.976562 36.847656 L 49.972656 31.792969 C 50 31.652344 49.996094 31.511719 49.960938 31.375 C 49.925781 31.234375 49.859375 31.109375 49.769531 31 C 49.675781 30.890625 49.5625 30.804688 49.433594 30.742188 C 49.300781 30.679688 49.164062 30.652344 49.019531 30.652344 M 49.019531 31.609375 L 47.796875 37.804688 L 52.34375 37.804688 C 55.203125 37.804688 57.175781 38.296875 58.261719 39.28125 C 59.347656 40.265625 59.671875 41.863281 59.238281 44.070312 L 57.105469 54.914062 L 51.921875 54.914062 L 53.949219 44.601562 C 54.183594 43.429688 54.097656 42.628906 53.695312 42.203125 C 53.292969 41.777344 52.441406 41.5625 51.136719 41.5625 L 47.058594 41.5625 L 44.429688 54.914062 L 39.328125 54.914062 L 43.914062 31.609375 L 49.015625 31.609375 " fill-opacity="1" fill-rule="nonzero"/><path fill="#000000" d="M 67.789062 50.757812 C 69.742188 50.757812 71.203125 50.398438 72.125 49.699219 C 73.039062 49.003906 73.667969 47.804688 74 46.125 C 74.308594 44.558594 74.191406 43.460938 73.652344 42.871094 C 73.097656 42.269531 71.90625 41.960938 70.105469 41.960938 L 66.980469 41.960938 L 65.25 50.757812 Z M 57.574219 61.585938 C 57.429688 61.585938 57.292969 61.523438 57.199219 61.414062 C 57.101562 61.296875 57.066406 61.164062 57.097656 61.015625 L 61.6875 37.714844 C 61.707031 37.601562 61.765625 37.507812 61.855469 37.4375 C 61.945312 37.363281 62.046875 37.324219 62.164062 37.328125 L 72.050781 37.328125 C 75.160156 37.328125 77.472656 38.15625 78.929688 39.800781 C 80.390625 41.453125 80.839844 43.761719 80.269531 46.664062 C 80.035156 47.847656 79.636719 48.945312 79.082031 49.925781 C 78.523438 50.910156 77.785156 51.820312 76.890625 52.632812 C 75.820312 53.625 74.605469 54.34375 73.289062 54.765625 C 71.992188 55.179688 70.328125 55.394531 68.34375 55.394531 L 64.335938 55.394531 L 63.191406 61.199219 C 63.167969 61.3125 63.113281 61.40625 63.023438 61.480469 C 62.933594 61.550781 62.832031 61.589844 62.714844 61.589844 L 57.570312 61.589844 Z M 57.574219 61.585938 " fill-opacity="1" fill-rule="nonzero"/><path fill="#ffffff" d="M 67.382812 42.441406 L 70.105469 42.441406 C 72.277344 42.441406 73.035156 42.914062 73.289062 43.195312 C 73.714844 43.660156 73.796875 44.640625 73.523438 46.035156 C 73.214844 47.59375 72.644531 48.699219 71.828125 49.320312 C 70.992188 49.953125 69.632812 50.277344 67.789062 50.277344 L 65.839844 50.277344 Z M 72.050781 36.847656 L 62.164062 36.847656 C 61.929688 36.847656 61.722656 36.917969 61.542969 37.066406 C 61.363281 37.210938 61.253906 37.398438 61.207031 37.621094 L 56.621094 60.925781 C 56.59375 61.066406 56.597656 61.207031 56.632812 61.347656 C 56.667969 61.484375 56.730469 61.609375 56.824219 61.71875 C 56.917969 61.832031 57.027344 61.917969 57.160156 61.976562 C 57.289062 62.039062 57.429688 62.070312 57.574219 62.070312 L 62.714844 62.070312 C 62.949219 62.070312 63.15625 61.996094 63.335938 61.851562 C 63.515625 61.703125 63.625 61.519531 63.671875 61.292969 L 64.738281 55.875 L 68.339844 55.875 C 70.378906 55.875 72.09375 55.652344 73.441406 55.222656 C 74.824219 54.777344 76.097656 54.027344 77.222656 52.984375 C 78.15625 52.140625 78.921875 51.191406 79.503906 50.164062 C 80.085938 49.136719 80.503906 47.988281 80.746094 46.757812 C 81.347656 43.703125 80.859375 41.257812 79.292969 39.488281 C 77.742188 37.734375 75.308594 36.847656 72.050781 36.847656 M 64.660156 51.238281 L 67.789062 51.238281 C 69.863281 51.238281 71.40625 50.851562 72.421875 50.082031 C 73.4375 49.308594 74.121094 48.023438 74.476562 46.21875 C 74.816406 44.488281 74.660156 43.265625 74.011719 42.550781 C 73.359375 41.839844 72.058594 41.484375 70.105469 41.484375 L 66.582031 41.484375 L 64.660156 51.238281 M 72.050781 37.808594 C 75.027344 37.808594 77.199219 38.578125 78.5625 40.117188 C 79.925781 41.660156 80.335938 43.8125 79.792969 46.574219 C 79.566406 47.710938 79.1875 48.753906 78.65625 49.695312 C 78.121094 50.636719 77.425781 51.5 76.5625 52.28125 C 75.535156 53.230469 74.394531 53.90625 73.140625 54.308594 C 71.882812 54.714844 70.285156 54.914062 68.34375 54.914062 L 63.9375 54.914062 L 62.71875 61.109375 L 57.574219 61.109375 L 62.164062 37.808594 L 72.050781 37.808594 " fill-opacity="1" fill-rule="nonzero"/></svg>