<svg xmlns="http://www.w3.org/2000/svg" xmlns:xlink="http://www.w3.org/1999/xlink" width="128" zoomAndPan="magnify" viewBox="0 0 96 95.999999" height="128" preserveAspectRatio="xMidYMid meet" version="1.0"><defs><clipPath id="1d5697013c"><path d="M 3.019531 8 L 93 8 L 93 88 L 3.019531 88 Z M 3.019531 8 " clip-rule="nonzero"/></clipPath></defs><g clip-path="url(#1d5697013c)"><path fill="#00d8ff" d="M 76.957031 33.945312 C 76.027344 33.625 75.0625 33.320312 74.066406 33.035156 C 74.230469 32.367188 74.382812 31.710938 74.515625 31.0625 C 76.703125 20.445312 75.273438 11.890625 70.386719 9.074219 C 65.699219 6.371094 58.035156 9.1875 50.296875 15.917969 C 49.554688 16.566406 48.804688 17.253906 48.0625 17.96875 C 47.5625 17.496094 47.070312 17.035156 46.574219 16.597656 C 38.460938 9.398438 30.332031 6.363281 25.449219 9.191406 C 20.769531 11.898438 19.382812 19.941406 21.351562 30.003906 C 21.542969 30.976562 21.765625 31.96875 22.015625 32.976562 C 20.867188 33.304688 19.753906 33.652344 18.691406 34.023438 C 9.183594 37.335938 3.109375 42.53125 3.109375 47.917969 C 3.109375 53.480469 9.628906 59.0625 19.535156 62.445312 C 20.316406 62.710938 21.125 62.964844 21.960938 63.203125 C 21.691406 64.292969 21.457031 65.363281 21.257812 66.40625 C 19.378906 76.296875 20.847656 84.148438 25.515625 86.839844 C 30.335938 89.621094 38.429688 86.761719 46.3125 79.878906 C 46.9375 79.335938 47.558594 78.753906 48.183594 78.152344 C 49 78.929688 49.808594 79.671875 50.613281 80.363281 C 58.246094 86.929688 65.785156 89.582031 70.449219 86.882812 C 75.265625 84.097656 76.835938 75.660156 74.800781 65.398438 C 74.644531 64.613281 74.464844 63.8125 74.265625 63 C 74.832031 62.832031 75.390625 62.65625 75.933594 62.476562 C 86.230469 59.066406 92.929688 53.554688 92.929688 47.917969 C 92.929688 42.511719 86.660156 37.28125 76.957031 33.945312 Z M 74.726562 58.835938 C 74.234375 59 73.730469 59.15625 73.21875 59.308594 C 72.082031 55.710938 70.546875 51.886719 68.667969 47.933594 C 70.460938 44.078125 71.933594 40.300781 73.039062 36.730469 C 73.957031 36.996094 74.851562 37.273438 75.710938 37.570312 C 84.019531 40.429688 89.089844 44.660156 89.089844 47.917969 C 89.089844 51.386719 83.617188 55.890625 74.726562 58.835938 Z M 71.035156 66.140625 C 71.9375 70.679688 72.0625 74.78125 71.46875 77.992188 C 70.933594 80.875 69.855469 82.796875 68.527344 83.5625 C 65.695312 85.199219 59.644531 83.070312 53.117188 77.457031 C 52.367188 76.8125 51.613281 76.125 50.859375 75.398438 C 53.386719 72.632812 55.917969 69.417969 58.386719 65.84375 C 62.726562 65.460938 66.828125 64.832031 70.550781 63.972656 C 70.734375 64.710938 70.894531 65.433594 71.035156 66.140625 Z M 33.734375 83.277344 C 30.96875 84.257812 28.765625 84.285156 27.433594 83.515625 C 24.601562 81.882812 23.421875 75.578125 25.027344 67.125 C 25.214844 66.15625 25.433594 65.160156 25.683594 64.144531 C 29.363281 64.957031 33.4375 65.542969 37.789062 65.894531 C 40.273438 69.390625 42.878906 72.601562 45.5 75.414062 C 44.925781 75.96875 44.355469 76.492188 43.785156 76.988281 C 40.300781 80.035156 36.808594 82.195312 33.734375 83.277344 Z M 20.777344 58.816406 C 16.398438 57.320312 12.78125 55.375 10.300781 53.25 C 8.074219 51.347656 6.949219 49.453125 6.949219 47.917969 C 6.949219 44.648438 11.824219 40.476562 19.957031 37.644531 C 20.945312 37.300781 21.976562 36.976562 23.046875 36.671875 C 24.171875 40.324219 25.648438 44.148438 27.425781 48.007812 C 25.625 51.929688 24.128906 55.8125 22.992188 59.511719 C 22.230469 59.289062 21.488281 59.058594 20.777344 58.816406 Z M 25.121094 29.269531 C 23.433594 20.644531 24.550781 14.140625 27.375 12.507812 C 30.378906 10.769531 37.023438 13.25 44.023438 19.464844 C 44.472656 19.863281 44.921875 20.277344 45.375 20.707031 C 42.765625 23.507812 40.1875 26.695312 37.722656 30.171875 C 33.5 30.5625 29.453125 31.191406 25.738281 32.035156 C 25.503906 31.09375 25.296875 30.171875 25.121094 29.269531 Z M 63.859375 38.828125 C 62.972656 37.296875 62.0625 35.796875 61.132812 34.339844 C 64 34.703125 66.742188 35.183594 69.320312 35.769531 C 68.546875 38.25 67.582031 40.84375 66.445312 43.503906 C 65.632812 41.953125 64.769531 40.394531 63.859375 38.828125 Z M 48.0625 23.449219 C 49.835938 25.363281 51.605469 27.503906 53.347656 29.824219 C 51.589844 29.742188 49.8125 29.699219 48.019531 29.699219 C 46.246094 29.699219 44.480469 29.742188 42.734375 29.824219 C 44.476562 27.523438 46.265625 25.386719 48.0625 23.449219 Z M 32.160156 38.855469 C 31.273438 40.394531 30.429688 41.945312 29.625 43.5 C 28.507812 40.851562 27.554688 38.246094 26.773438 35.730469 C 29.335938 35.15625 32.066406 34.6875 34.914062 34.332031 C 33.972656 35.804688 33.050781 37.3125 32.160156 38.855469 Z M 34.996094 61.773438 C 32.054688 61.445312 29.28125 61 26.71875 60.441406 C 27.511719 57.882812 28.488281 55.226562 29.632812 52.519531 C 30.433594 54.070312 31.285156 55.621094 32.175781 57.164062 C 33.085938 58.734375 34.03125 60.269531 34.996094 61.773438 Z M 48.167969 72.652344 C 46.351562 70.695312 44.535156 68.523438 42.765625 66.191406 C 44.484375 66.257812 46.238281 66.292969 48.019531 66.292969 C 49.851562 66.292969 51.660156 66.25 53.441406 66.171875 C 51.695312 68.546875 49.925781 70.722656 48.167969 72.652344 Z M 66.480469 52.382812 C 67.683594 55.117188 68.695312 57.761719 69.5 60.277344 C 66.894531 60.871094 64.082031 61.347656 61.121094 61.707031 C 62.054688 60.230469 62.972656 58.703125 63.878906 57.136719 C 64.792969 55.550781 65.660156 53.960938 66.480469 52.382812 Z M 60.550781 55.222656 C 59.148438 57.65625 57.707031 59.976562 56.246094 62.167969 C 53.582031 62.359375 50.828125 62.457031 48.019531 62.457031 C 45.222656 62.457031 42.503906 62.371094 39.886719 62.199219 C 38.363281 59.980469 36.894531 57.652344 35.496094 55.242188 C 34.105469 52.839844 32.824219 50.417969 31.664062 48.007812 C 32.824219 45.59375 34.101562 43.167969 35.488281 40.769531 L 35.484375 40.773438 C 36.871094 38.367188 38.332031 36.050781 39.839844 33.84375 C 42.511719 33.640625 45.25 33.535156 48.019531 33.535156 C 50.800781 33.535156 53.542969 33.640625 56.210938 33.84375 C 57.699219 36.035156 59.148438 38.347656 60.542969 40.75 C 61.949219 43.183594 63.242188 45.59375 64.410156 47.957031 C 63.246094 50.359375 61.957031 52.792969 60.550781 55.222656 Z M 68.46875 12.394531 C 71.476562 14.128906 72.648438 21.117188 70.753906 30.289062 C 70.636719 30.871094 70.5 31.46875 70.351562 32.070312 C 66.625 31.210938 62.582031 30.574219 58.347656 30.175781 C 55.875 26.664062 53.316406 23.46875 50.75 20.703125 C 51.441406 20.042969 52.132812 19.410156 52.816406 18.8125 C 59.449219 13.042969 65.648438 10.765625 68.46875 12.394531 Z M 48.019531 39.898438 C 52.449219 39.898438 56.039062 43.488281 56.039062 47.917969 C 56.039062 52.339844 52.449219 55.933594 48.019531 55.933594 C 43.59375 55.933594 40 52.339844 40 47.917969 C 40 43.488281 43.59375 39.898438 48.019531 39.898438 Z M 48.019531 39.898438 " fill-opacity="1" fill-rule="nonzero"/></g></svg>