<svg xmlns="http://www.w3.org/2000/svg" xmlns:xlink="http://www.w3.org/1999/xlink" width="128" zoomAndPan="magnify" viewBox="0 0 96 95.999999" height="128" preserveAspectRatio="xMidYMid meet" version="1.0"><defs><clipPath id="3ce4bc518e"><path d="M 3.824219 14 L 92.324219 14 L 92.324219 82 L 3.824219 82 Z M 3.824219 14 " clip-rule="nonzero"/></clipPath></defs><g clip-path="url(#3ce4bc518e)"><path fill="#cf649a" d="M 80.011719 53 C 76.914062 53.015625 74.238281 53.757812 71.992188 54.867188 C 71.160156 53.222656 70.332031 51.789062 70.191406 50.71875 C 70.035156 49.472656 69.847656 48.710938 70.035156 47.226562 C 70.226562 45.738281 71.089844 43.628906 71.089844 43.457031 C 71.074219 43.300781 70.902344 42.539062 69.121094 42.523438 C 67.339844 42.507812 65.800781 42.871094 65.628906 43.335938 C 65.320312 44.203125 65.074219 45.082031 64.886719 45.984375 C 64.574219 47.605469 61.324219 53.363281 59.472656 56.390625 C 58.867188 55.214844 58.351562 54.175781 58.246094 53.347656 C 58.089844 52.101562 57.902344 51.34375 58.089844 49.855469 C 58.28125 48.371094 59.144531 46.261719 59.144531 46.085938 C 59.128906 45.929688 58.953125 45.171875 57.175781 45.152344 C 55.394531 45.136719 53.855469 45.5 53.683594 45.96875 C 53.511719 46.433594 53.320312 47.539062 52.9375 48.613281 C 52.574219 49.683594 48.253906 59.296875 47.132812 61.800781 C 46.558594 63.082031 46.058594 64.101562 45.695312 64.792969 C 45.332031 65.484375 45.679688 64.84375 45.644531 64.914062 L 45.160156 65.832031 L 45.160156 65.847656 C 44.917969 66.28125 44.660156 66.695312 44.539062 66.695312 C 44.453125 66.695312 44.277344 65.535156 44.574219 63.945312 C 45.214844 60.609375 46.769531 55.40625 46.75 55.21875 C 46.75 55.132812 47.046875 54.214844 45.75 53.746094 C 44.484375 53.28125 44.035156 54.058594 43.933594 54.058594 C 43.828125 54.058594 43.742188 54.335938 43.742188 54.335938 C 43.742188 54.335938 45.144531 48.472656 41.0625 48.472656 C 38.503906 48.472656 34.976562 51.257812 33.230469 53.796875 L 24.414062 58.621094 L 24.222656 58.414062 C 19.28125 53.136719 10.136719 49.402344 10.519531 42.316406 C 10.65625 39.742188 11.554688 32.945312 28.082031 24.71875 C 41.617188 17.976562 52.457031 19.828125 54.339844 23.941406 C 57.019531 29.816406 48.550781 40.742188 34.476562 42.316406 C 29.117188 42.921875 26.300781 40.847656 25.589844 40.070312 C 24.847656 39.257812 24.742188 39.222656 24.46875 39.378906 C 24.019531 39.621094 24.292969 40.347656 24.46875 40.78125 C 24.882812 41.871094 26.609375 43.804688 29.550781 44.773438 C 32.125 45.621094 38.417969 46.085938 46.023438 43.148438 C 54.546875 39.847656 61.203125 30.6875 59.246094 23.027344 C 57.257812 15.234375 44.328125 12.675781 32.105469 17.015625 C 24.832031 19.605469 16.960938 23.648438 11.292969 28.953125 C 4.539062 35.246094 3.464844 40.746094 3.914062 43.027344 C 5.488281 51.167969 16.707031 56.476562 21.199219 60.398438 L 20.578125 60.746094 C 18.332031 61.851562 9.773438 66.328125 7.628906 71.066406 C 5.210938 76.421875 8.011719 80.277344 9.878906 80.796875 C 15.652344 82.40625 21.5625 79.519531 24.761719 74.765625 C 27.941406 70.011719 27.5625 63.839844 26.09375 61.023438 L 26.039062 60.917969 L 27.800781 59.882812 C 28.945312 59.207031 30.066406 58.585938 31.050781 58.050781 C 30.5 59.554688 30.101562 61.332031 29.894531 63.925781 C 29.652344 66.96875 30.894531 70.910156 32.539062 72.464844 C 33.265625 73.140625 34.128906 73.15625 34.664062 73.15625 C 36.566406 73.15625 37.429688 71.582031 38.382812 69.699219 C 39.558594 67.402344 40.59375 64.738281 40.59375 64.738281 C 40.59375 64.738281 39.296875 71.949219 42.84375 71.949219 C 44.140625 71.949219 45.433594 70.269531 46.023438 69.40625 L 46.023438 69.421875 C 46.023438 69.421875 46.058594 69.371094 46.125 69.25 C 46.265625 69.042969 46.332031 68.921875 46.332031 68.921875 L 46.332031 68.886719 C 46.851562 67.988281 48.011719 65.929688 49.738281 62.523438 C 51.96875 58.132812 54.113281 52.636719 54.113281 52.636719 C 54.113281 52.636719 54.320312 53.984375 54.960938 56.199219 C 55.339844 57.511719 56.171875 58.949219 56.8125 60.347656 L 55.980469 61.488281 L 56 61.507812 C 55.554688 62.09375 55.101562 62.667969 54.632812 63.234375 C 52.867188 65.34375 50.761719 67.746094 50.484375 68.4375 C 50.15625 69.25 50.222656 69.855469 50.863281 70.339844 C 51.332031 70.683594 52.160156 70.753906 53.042969 70.683594 C 54.632812 70.582031 55.738281 70.183594 56.292969 69.941406 C 57.292969 69.582031 58.226562 69.09375 59.089844 68.472656 C 60.820312 67.191406 61.875 65.375 61.769531 62.957031 C 61.71875 61.625 61.289062 60.3125 60.75 59.066406 L 61.21875 58.375 C 63.949219 54.382812 66.058594 49.992188 66.058594 49.992188 C 66.058594 49.992188 66.265625 51.339844 66.90625 53.550781 C 67.234375 54.675781 67.890625 55.902344 68.480469 57.113281 C 65.921875 59.203125 64.3125 61.625 63.761719 63.214844 C 62.738281 66.152344 63.535156 67.484375 65.039062 67.796875 C 65.714844 67.933594 66.683594 67.625 67.40625 67.3125 C 68.304688 67.019531 69.394531 66.515625 70.398438 65.773438 C 72.128906 64.496094 73.785156 62.714844 73.699219 60.3125 C 73.648438 59.203125 73.355469 58.117188 72.957031 57.078125 C 75.136719 56.179688 77.953125 55.660156 81.53125 56.09375 C 89.222656 56.992188 90.742188 61.796875 90.449219 63.800781 C 90.15625 65.804688 88.546875 66.914062 88.011719 67.257812 C 87.476562 67.585938 87.300781 67.707031 87.355469 67.949219 C 87.425781 68.3125 87.664062 68.296875 88.132812 68.226562 C 88.773438 68.121094 92.179688 66.582031 92.316406 62.882812 C 92.523438 58.128906 88.011719 52.945312 80.007812 52.996094 Z M 20.683594 73 C 18.140625 75.785156 14.5625 76.839844 13.042969 75.941406 C 11.398438 74.988281 12.039062 70.890625 15.167969 67.9375 C 17.070312 66.136719 19.542969 64.480469 21.167969 63.457031 L 22.742188 62.507812 C 22.84375 62.4375 22.914062 62.402344 22.914062 62.402344 C 23.035156 62.335938 23.175781 62.246094 23.3125 62.160156 C 24.472656 66.378906 23.363281 70.078125 20.683594 73 Z M 39.265625 60.363281 C 38.386719 62.527344 36.519531 68.074219 35.394531 67.761719 C 34.425781 67.503906 33.839844 63.304688 35.203125 59.152344 C 35.894531 57.0625 37.367188 54.574219 38.230469 53.605469 C 39.632812 52.050781 41.152344 51.53125 41.53125 52.167969 C 41.980469 53 39.820312 59.015625 39.265625 60.363281 Z M 54.601562 67.695312 C 54.21875 67.886719 53.875 68.023438 53.71875 67.917969 C 53.597656 67.851562 53.875 67.589844 53.875 67.589844 C 53.875 67.589844 55.792969 65.53125 56.554688 64.582031 L 58.058594 62.664062 L 58.058594 62.871094 C 58.058594 65.359375 55.671875 67.019531 54.601562 67.695312 Z M 66.421875 64.996094 C 66.148438 64.789062 66.179688 64.148438 67.113281 62.144531 C 67.476562 61.351562 68.308594 60.019531 69.742188 58.757812 C 69.914062 59.277344 70.019531 59.777344 70 60.242188 C 69.984375 63.355469 67.769531 64.511719 66.421875 64.996094 Z M 66.421875 64.996094 " fill-opacity="1" fill-rule="nonzero"/></g></svg>