<svg xmlns="http://www.w3.org/2000/svg" xmlns:xlink="http://www.w3.org/1999/xlink" width="128" zoomAndPan="magnify" viewBox="0 0 96 95.999999" height="128" preserveAspectRatio="xMidYMid meet" version="1.0"><defs><clipPath id="6c86f76b1b"><path d="M 4.984375 4.984375 L 91.234375 4.984375 L 91.234375 91.234375 L 4.984375 91.234375 Z M 4.984375 4.984375 " clip-rule="nonzero"/></clipPath></defs><g clip-path="url(#6c86f76b1b)"><path fill="#007acc" d="M 4.984375 91.234375 L 91.234375 91.234375 L 91.234375 4.984375 L 4.984375 4.984375 Z M 4.984375 91.234375 " fill-opacity="1" fill-rule="nonzero"/></g><path fill="#ffffff" d="M 24.054688 48.394531 L 24.027344 51.929688 L 35.253906 51.929688 L 35.253906 83.828125 L 43.195312 83.828125 L 43.195312 51.929688 L 54.421875 51.929688 L 54.421875 48.464844 C 54.421875 46.546875 54.378906 44.945312 54.324219 44.902344 C 54.285156 44.847656 47.453125 44.820312 39.167969 44.835938 L 24.09375 44.875 Z M 24.054688 48.394531 " fill-opacity="1" fill-rule="nonzero"/><path fill="#ffffff" d="M 74.582031 44.777344 C 76.773438 45.324219 78.441406 46.296875 79.976562 47.886719 C 80.769531 48.734375 81.945312 50.28125 82.042969 50.652344 C 82.066406 50.761719 78.316406 53.277344 76.042969 54.691406 C 75.964844 54.746094 75.636719 54.386719 75.265625 53.839844 C 74.15625 52.222656 72.992188 51.527344 71.210938 51.40625 C 68.597656 51.226562 66.914062 52.59375 66.925781 54.882812 C 66.925781 55.554688 67.023438 55.949219 67.296875 56.496094 C 67.875 57.6875 68.941406 58.398438 72.292969 59.851562 C 78.46875 62.507812 81.109375 64.257812 82.753906 66.753906 C 84.589844 69.53125 85 73.964844 83.753906 77.265625 C 82.386719 80.851562 78.988281 83.289062 74.210938 84.097656 C 72.730469 84.355469 69.226562 84.316406 67.636719 84.027344 C 64.175781 83.414062 60.890625 81.699219 58.863281 79.457031 C 58.070312 78.582031 56.523438 76.292969 56.617188 76.128906 C 56.660156 76.074219 57.015625 75.855469 57.414062 75.621094 C 57.796875 75.402344 59.25 74.570312 60.617188 73.773438 L 63.09375 72.339844 L 63.617188 73.101562 C 64.339844 74.210938 65.929688 75.730469 66.886719 76.238281 C 69.640625 77.6875 73.417969 77.484375 75.277344 75.816406 C 76.074219 75.085938 76.402344 74.335938 76.402344 73.226562 C 76.402344 72.226562 76.28125 71.789062 75.757812 71.039062 C 75.085938 70.078125 73.71875 69.269531 69.832031 67.585938 C 65.378906 65.671875 63.464844 64.476562 61.710938 62.585938 C 60.699219 61.492188 59.742188 59.742188 59.34375 58.273438 C 59.011719 57.058594 58.933594 54.007812 59.191406 52.773438 C 60.113281 48.472656 63.355469 45.476562 68.035156 44.585938 C 69.554688 44.300781 73.089844 44.40625 74.582031 44.777344 Z M 74.582031 44.777344 " fill-opacity="1" fill-rule="nonzero"/></svg>