<svg xmlns="http://www.w3.org/2000/svg" xmlns:xlink="http://www.w3.org/1999/xlink" width="128" zoomAndPan="magnify" viewBox="0 0 96 95.999999" height="128" preserveAspectRatio="xMidYMid meet" version="1.0"><defs><clipPath id="609a054a07"><path d="M 2.3125 8.625 L 93.8125 8.625 L 93.8125 87.375 L 2.3125 87.375 Z M 2.3125 8.625 " clip-rule="nonzero"/></clipPath><clipPath id="f6f27adcd1"><path d="M 20 8.625 L 76 8.625 L 76 57 L 20 57 Z M 20 8.625 " clip-rule="nonzero"/></clipPath></defs><g clip-path="url(#609a054a07)"><path fill="#41b883" d="M 75.492188 8.625 L 93.777344 8.625 L 48.0625 87.375 L 2.34375 8.625 L 37.316406 8.625 L 48.0625 26.886719 L 58.574219 8.625 Z M 75.492188 8.625 " fill-opacity="1" fill-rule="nonzero"/><path fill="#41b883" d="M 2.34375 8.625 L 48.0625 87.375 L 93.777344 8.625 L 75.492188 8.625 L 48.0625 55.875 L 20.402344 8.625 Z M 2.34375 8.625 " fill-opacity="1" fill-rule="nonzero"/></g><g clip-path="url(#f6f27adcd1)"><path fill="#35495e" d="M 20.402344 8.625 L 48.0625 56.101562 L 75.492188 8.625 L 58.574219 8.625 L 48.0625 26.886719 L 37.316406 8.625 Z M 20.402344 8.625 " fill-opacity="1" fill-rule="nonzero"/></g></svg>