<svg width="32" height="32" viewBox="0 0 32 32" fill="none" xmlns="http://www.w3.org/2000/svg">
<g clip-path="url(#clip0_733_12)">
<path d="M27.0894 5.82651C25.0148 4.87429 22.8254 4.19529 20.576 3.80651C20.5555 3.80251 20.5343 3.80514 20.5153 3.814C20.4964 3.82287 20.4808 3.83752 20.4707 3.85584C20.1907 4.35584 19.8787 5.00784 19.66 5.52251C17.2353 5.15422 14.7688 5.15422 12.344 5.52251C12.1007 4.95224 11.826 4.39584 11.5214 3.85584C11.5109 3.83793 11.4952 3.82363 11.4764 3.81482C11.4576 3.80601 11.4365 3.80311 11.416 3.80651C9.16649 4.19448 6.977 4.87351 4.9027 5.82651C4.88514 5.83387 4.87025 5.84643 4.86003 5.86251C0.710697 12.0612 -0.426636 18.1065 0.13203 24.0758C0.133388 24.0907 0.137753 24.105 0.14486 24.1181C0.151967 24.1312 0.161666 24.1427 0.173364 24.1518C2.58882 25.9414 5.29084 27.3076 8.16403 28.1918C8.18428 28.1977 8.20584 28.1973 8.22584 28.1906C8.24584 28.1839 8.26335 28.1713 8.27603 28.1545C8.89372 27.3152 9.44049 26.4259 9.9107 25.4958C9.91725 25.4831 9.92103 25.4691 9.9218 25.4548C9.92256 25.4405 9.92028 25.4262 9.91512 25.4129C9.90995 25.3995 9.90201 25.3874 9.89183 25.3774C9.88165 25.3673 9.86944 25.3595 9.85603 25.3545C8.99393 25.0246 8.15931 24.6269 7.36003 24.1652C7.34538 24.1567 7.33305 24.1447 7.32414 24.1303C7.31523 24.116 7.31001 24.0996 7.30895 24.0827C7.3079 24.0658 7.31104 24.0489 7.31809 24.0335C7.32514 24.0181 7.33588 24.0047 7.34936 23.9945C7.51768 23.8686 7.68306 23.7388 7.84536 23.6052C7.85956 23.5937 7.87668 23.5863 7.89481 23.584C7.91294 23.5816 7.93136 23.5843 7.94803 23.5918C13.1854 25.9825 18.8547 25.9825 24.0307 23.5918C24.0475 23.5841 24.0662 23.5812 24.0846 23.5835C24.103 23.5859 24.1204 23.5934 24.1347 23.6052C24.2947 23.7358 24.4627 23.8692 24.632 23.9945C24.6454 24.0046 24.656 24.0177 24.6631 24.0329C24.6702 24.048 24.6735 24.0646 24.6727 24.0813C24.6719 24.098 24.6671 24.1142 24.6586 24.1286C24.6501 24.143 24.6382 24.1551 24.624 24.1638C23.8266 24.6299 22.9911 25.0278 22.1267 25.3532C22.1132 25.3583 22.101 25.3663 22.0908 25.3764C22.0806 25.3866 22.0727 25.3989 22.0675 25.4123C22.0624 25.4258 22.0601 25.4402 22.0609 25.4546C22.0617 25.4689 22.0655 25.483 22.072 25.4958C22.552 26.4265 23.1014 27.3118 23.7054 28.1532C23.7178 28.1703 23.7353 28.1831 23.7554 28.1898C23.7755 28.1965 23.7971 28.1968 23.8174 28.1905C26.6953 27.309 29.4018 25.9427 31.82 24.1505C31.8318 24.1422 31.8417 24.1315 31.849 24.1191C31.8564 24.1066 31.861 24.0928 31.8627 24.0785C32.5294 17.1758 30.7454 11.1798 27.1307 5.86517C27.1222 5.84725 27.1076 5.83303 27.0894 5.82517V5.82651ZM10.6934 20.4398C9.11603 20.4398 7.81736 18.9932 7.81736 17.2145C7.81736 15.4372 9.09203 13.9892 10.6934 13.9892C12.3067 13.9892 13.5947 15.4505 13.5694 17.2158C13.5694 18.9932 12.2947 20.4398 10.6934 20.4398ZM21.3267 20.4398C19.7494 20.4398 18.4507 18.9932 18.4507 17.2145C18.4507 15.4372 19.724 13.9892 21.3267 13.9892C22.94 13.9892 24.228 15.4505 24.2027 17.2158C24.2027 18.9932 22.9414 20.4398 21.3267 20.4398Z" fill="white"/>
</g>
<defs>
<clipPath id="clip0_733_12">
<rect width="32" height="32" fill="white"/>
</clipPath>
</defs>
</svg>
