<svg width="30" height="24" viewBox="0 0 30 24" fill="none" xmlns="http://www.w3.org/2000/svg">
<path d="M27.6316 19.7647C28.2398 19.765 28.8246 19.9745 29.2648 20.3498C29.705 20.725 29.9669 21.2374 29.9961 21.7806C30.0253 22.3238 29.8197 22.8562 29.4218 23.2676C29.024 23.6789 28.4643 23.9376 27.8589 23.9901L27.6316 24H2.36842C1.76018 23.9997 1.17538 23.7902 0.735179 23.415C0.294981 23.0397 0.0331389 22.5273 0.00390906 21.9841C-0.0253208 21.4409 0.180303 20.9085 0.578172 20.4971C0.976041 20.0858 1.53565 19.8271 2.14105 19.7746L2.36842 19.7647H27.6316ZM27.6316 9.88235C28.2597 9.88235 28.8621 10.1055 29.3063 10.5026C29.7505 10.8997 30 11.4384 30 12C30 12.5616 29.7505 13.1003 29.3063 13.4974C28.8621 13.8945 28.2597 14.1176 27.6316 14.1176H2.36842C1.74028 14.1176 1.13786 13.8945 0.693695 13.4974C0.249529 13.1003 0 12.5616 0 12C0 11.4384 0.249529 10.8997 0.693695 10.5026C1.13786 10.1055 1.74028 9.88235 2.36842 9.88235H27.6316ZM27.6316 0C28.2597 0 28.8621 0.223109 29.3063 0.620245C29.7505 1.01738 30 1.55601 30 2.11765C30 2.67928 29.7505 3.21791 29.3063 3.61505C28.8621 4.01219 28.2597 4.23529 27.6316 4.23529H2.36842C1.74028 4.23529 1.13786 4.01219 0.693695 3.61505C0.249529 3.21791 0 2.67928 0 2.11765C0 1.55601 0.249529 1.01738 0.693695 0.620245C1.13786 0.223109 1.74028 0 2.36842 0H27.6316Z" fill="white"/>
</svg>
