<svg width="22" height="22" viewBox="0 0 22 22" fill="none" xmlns="http://www.w3.org/2000/svg">
<path d="M19.5556 0H2.44444C1.79614 0 1.17438 0.257539 0.715961 0.715961C0.257539 1.17438 0 1.79614 0 2.44444V19.5556C0 20.2039 0.257539 20.8256 0.715961 21.284C1.17438 21.7425 1.79614 22 2.44444 22H19.5556C20.9 22 22 20.9 22 19.5556V2.44444C22 1.1 20.9 0 19.5556 0ZM15.8889 12.2222H12.2222V15.8889C12.2222 16.5611 11.6722 17.1111 11 17.1111C10.3278 17.1111 9.77778 16.5611 9.77778 15.8889V12.2222H6.11111C5.43889 12.2222 4.88889 11.6722 4.88889 11C4.88889 10.3278 5.43889 9.77778 6.11111 9.77778H9.77778V6.11111C9.77778 5.43889 10.3278 4.88889 11 4.88889C11.6722 4.88889 12.2222 5.43889 12.2222 6.11111V9.77778H15.8889C16.5611 9.77778 17.1111 10.3278 17.1111 11C17.1111 11.6722 16.5611 12.2222 15.8889 12.2222Z" fill="#DDDDDD"/>
<path d="M12.2222 12.2222H15.8889C16.5611 12.2222 17.1111 11.6722 17.1111 11C17.1111 10.3278 16.5611 9.77778 15.8889 9.77778H12.2222V6.11111C12.2222 5.43889 11.6722 4.88889 11 4.88889C10.3278 4.88889 9.77778 5.43889 9.77778 6.11111V9.77778H6.11111C5.43889 9.77778 4.88889 10.3278 4.88889 11C4.88889 11.6722 5.43889 12.2222 6.11111 12.2222H9.77778V15.8889C9.77778 16.5611 10.3278 17.1111 11 17.1111C11.6722 17.1111 12.2222 16.5611 12.2222 15.8889V12.2222Z" fill="#252525"/>
</svg>
