<svg width="22" height="22" viewBox="0 0 22 22" fill="none" xmlns="http://www.w3.org/2000/svg">
<rect width="22" height="22" rx="2" transform="matrix(-1 0 0 1 22 0)" fill="#DDDDDD"/>
<path d="M8.58525 17.7427L14.7972 11.9802C14.871 11.9116 14.9231 11.8373 14.9535 11.7573C14.9845 11.6772 15 11.5915 15 11.5C15 11.4085 14.9845 11.3228 14.9535 11.2427C14.9231 11.1627 14.871 11.0884 14.7972 11.0198L8.58525 5.24011C8.41321 5.08004 8.19816 5 7.94009 5C7.68203 5 7.46083 5.08575 7.2765 5.25726C7.09217 5.42876 7 5.62885 7 5.85752C7 6.08619 7.09217 6.28628 7.2765 6.45778L12.6959 11.5L7.2765 16.5422C7.10445 16.7023 7.01843 16.8994 7.01843 17.1336C7.01843 17.3682 7.1106 17.5712 7.29493 17.7427C7.47926 17.9142 7.69432 18 7.94009 18C8.18587 18 8.40092 17.9142 8.58525 17.7427Z" fill="#252525"/>
</svg>
