<svg width="22" height="22" viewBox="0 0 22 22" fill="none" xmlns="http://www.w3.org/2000/svg">
<rect width="22" height="22" rx="2" fill="#DDDDDD"/>
<path d="M13.4147 17.7427L7.20276 11.9802C7.12903 11.9116 7.07693 11.8373 7.04645 11.7573C7.01548 11.6772 7 11.5915 7 11.5C7 11.4085 7.01548 11.3228 7.04645 11.2427C7.07693 11.1627 7.12903 11.0884 7.20276 11.0198L13.4147 5.24011C13.5868 5.08004 13.8018 5 14.0599 5C14.318 5 14.5392 5.08575 14.7235 5.25726C14.9078 5.42876 15 5.62885 15 5.85752C15 6.08619 14.9078 6.28628 14.7235 6.45778L9.5 11.5L14.7235 16.5422C14.8955 16.7023 14.9816 16.8994 14.9816 17.1336C14.9816 17.3682 14.8894 17.5712 14.7051 17.7427C14.5207 17.9142 14.3057 18 14.0599 18C13.8141 18 13.5991 17.9142 13.4147 17.7427Z" fill="#252525"/>
</svg>
